<?xml version="1.0" encoding="UTF-8"?>
<!DOCTYPE svg PUBLIC "-//W3C//DTD SVG 1.1//EN" "http://www.w3.org/Graphics/SVG/1.1/DTD/svg11.dtd">
<!-- Creator: CorelDRAW X6 -->
<svg xmlns="http://www.w3.org/2000/svg" xml:space="preserve" width="126px" height="126px" version="1.1" style="shape-rendering:geometricPrecision; text-rendering:geometricPrecision; image-rendering:optimizeQuality; fill-rule:evenodd; clip-rule:evenodd"
viewBox="0 0 8211 8237"
 xmlns:xlink="http://www.w3.org/1999/xlink">
 <defs>
  <style type="text/css">
   <![CDATA[
    .fil1 {fill:#FEFEFE}
    .fil0 {fill:#0D5DAC}
   ]]>
  </style>
 </defs>
 <g id="Capa_x0020_1">
  <metadata id="CorelCorpID_0Corel-Layer"/>
  <path class="fil0" d="M4106 3732l341 197 -1536 2935 1141 0 509 -1000 1495 0 0 120 0 1126 -975 563 -975 563 -975 -563 -975 -563 0 -1126 0 -1126 975 -563 975 -563zm1176 679l775 447 0 113 -1051 0 277 -561zm979 -4411l975 563 975 563 0 1126 0 1126 -975 563 -43 25 -354 -2237 -1241 0 -962 1837 -326 -188 0 -1126 0 -1126 975 -563 975 -563zm32 4487l-32 18 -798 -461 612 -1241 217 1683zm-4341 -4487l975 563 975 563 0 1126 0 1126 -975 563 -975 563 -975 -563 -975 -563 0 -1126 0 -1126 975 -563 975 -563z"/>
  <path class="fil0" d="M6056 4972l298 0 -63 -485 901 -520 459 2898 -1064 0 -121 -1000 -410 0 0 -893zm-594 -928l-181 367 -201 -116 -634 -366 190 -362 649 375 177 103z"/>
  <polygon class="fil1" points="4446,3929 2910,6864 4052,6864 4561,5864 6056,5864 6056,4972 5005,4972 5281,4411 5081,4295 "/>
  <polygon class="fil1" points="7193,3966 6839,1730 5597,1730 4636,3567 5285,3942 5462,4044 6075,2803 6292,4487 "/>
 </g>
</svg>
