<?xml version="1.0" encoding="UTF-8"?>
<!DOCTYPE svg PUBLIC "-//W3C//DTD SVG 1.1//EN" "http://www.w3.org/Graphics/SVG/1.1/DTD/svg11.dtd">
<!-- Creator: CorelDRAW X6 -->
<svg xmlns="http://www.w3.org/2000/svg" xml:space="preserve" width="427px" height="73px" version="1.1" style="shape-rendering:geometricPrecision; text-rendering:geometricPrecision; image-rendering:optimizeQuality; fill-rule:evenodd; clip-rule:evenodd"
viewBox="0 0 84378 14495"
 xmlns:xlink="http://www.w3.org/1999/xlink">
 <defs>
  <style type="text/css">
   <![CDATA[
    .fil0 {fill:#FEFEFE;fill-rule:nonzero}
   ]]>
  </style>
 </defs>
 <g id="Capa_x0020_1">
  <metadata id="CorelCorpID_0Corel-Layer"/>
  <path class="fil0" d="M7395 746c378,0 696,77 955,231 259,154 513,455 761,903l4941 8972c50,100 62,182 37,246 -25,65 -97,97 -216,97l-1896 0c-169,0 -284,-65 -343,-194l-1060 -1926 -7016 0 -1030 1926c-70,129 -184,194 -343,194l-1941 0c-129,0 -207,-32 -232,-97 -25,-65 -12,-147 37,-246l4896 -8972c249,-448 493,-749 732,-903 239,-154 518,-231 836,-231l881 0zm-2896 6598l5135 0 -2373 -4374c-40,-70 -95,-104 -164,-104l-89 0c-70,0 -125,35 -164,104l-2343 4374zm19511 -4344c179,0 269,89 269,269l0 1254c0,179 -90,269 -269,269l-5792 0c-328,0 -597,27 -806,82 -209,55 -373,144 -493,269 -119,124 -204,293 -254,507 -50,214 -75,475 -75,784l0 1329c0,318 25,582 75,791 50,209 134,376 254,500 119,124 284,214 493,269 209,55 478,82 806,82l5792 0c179,0 269,90 269,269l0 1254c0,179 -90,269 -269,269l-6001 0c-677,0 -1242,-55 -1694,-164 -453,-110 -816,-286 -1090,-530 -274,-244 -470,-557 -589,-941 -119,-383 -179,-843 -179,-1381l0 -2150c0,-537 60,-998 179,-1381 119,-383 316,-697 589,-941 274,-244 637,-423 1090,-537 453,-114 1018,-171 1694,-171l6001 0zm10882 0c179,0 269,89 269,269l0 1254c0,179 -89,269 -269,269l-5792 0c-328,0 -597,27 -806,82 -209,55 -373,144 -493,269 -119,124 -204,293 -254,507 -50,214 -75,475 -75,784l0 1329c0,318 25,582 75,791 50,209 134,376 254,500 119,124 284,214 493,269 209,55 478,82 806,82l5792 0c179,0 269,90 269,269l0 1254c0,179 -89,269 -269,269l-6001 0c-677,0 -1242,-55 -1694,-164 -453,-110 -816,-286 -1090,-530 -274,-244 -470,-557 -589,-941 -119,-383 -179,-843 -179,-1381l0 -2150c0,-537 60,-998 179,-1381 119,-383 316,-697 589,-941 274,-244 637,-423 1090,-537 453,-114 1017,-171 1694,-171l6001 0zm3448 0c219,0 328,114 328,343l0 4314c0,318 20,582 60,791 40,209 114,376 224,500 110,124 264,214 463,269 199,55 463,82 791,82l3837 0c328,0 597,-27 806,-82 209,-55 375,-144 500,-269 124,-125 211,-291 261,-500 50,-209 75,-473 75,-791l0 -4314c0,-229 110,-343 328,-343l1463 0c219,0 328,114 328,343l0 4837c0,537 -60,998 -179,1381 -120,383 -316,697 -590,941 -274,244 -639,420 -1097,530 -458,110 -1020,164 -1687,164l-4165 0c-677,0 -1242,-55 -1694,-164 -453,-110 -816,-286 -1090,-530 -274,-244 -470,-557 -590,-941 -119,-383 -179,-843 -179,-1381l0 -4837c0,-229 114,-343 343,-343l1463 0zm13077 -3001c219,0 328,110 328,328l0 2672 5598 0c667,0 1229,57 1687,171 458,115 824,294 1097,537 274,244 470,557 589,941 120,383 179,843 179,1381l0 2150c0,537 -60,998 -179,1381 -119,383 -316,697 -589,941 -274,244 -639,420 -1097,530 -458,110 -1020,164 -1687,164l-4180 0c-677,0 -1242,-55 -1694,-164 -453,-110 -816,-286 -1090,-530 -274,-244 -470,-557 -590,-941 -119,-383 -179,-843 -179,-1381l0 -7852c0,-219 114,-328 343,-328l1463 0zm328 4792l0 2971c0,318 25,582 75,791 50,209 137,376 261,500 124,124 291,214 500,269 209,55 473,82 791,82l3762 0c328,0 597,-27 806,-82 209,-55 376,-144 500,-269 124,-124 211,-291 261,-500 50,-209 75,-473 75,-791l0 -1329c0,-308 -25,-570 -75,-784 -50,-214 -137,-383 -261,-507 -125,-125 -291,-214 -500,-269 -209,-55 -478,-82 -806,-82l-5389 0zm21287 -1791c110,0 182,37 217,112 35,75 27,162 -22,261l-5732 10106c-199,349 -480,605 -844,769 -363,164 -868,246 -1515,246l-1045 0c-179,0 -269,-89 -269,-269l0 -1224c0,-179 89,-269 269,-269l881 0c378,0 632,-114 761,-343l806 -1418c-249,-20 -440,-80 -575,-179 -134,-100 -261,-254 -381,-463l-4031 -6956c-50,-100 -57,-187 -22,-261 35,-75 107,-112 217,-112l1717 0c169,0 289,70 358,209l3314 5747c79,139 142,231 187,276 45,45 102,67 172,67l3508 -6091c70,-139 189,-209 358,-209l1672 0zm10718 0c179,0 269,89 269,269l0 1194c0,179 -89,269 -269,269l-6732 0c-308,0 -522,57 -642,172 -120,114 -179,281 -179,500l0 224c0,199 60,356 179,470 119,114 333,172 642,172l5031 0c836,0 1433,174 1791,522 358,348 538,841 538,1478l0 836c0,328 -40,622 -119,881 -80,259 -212,478 -396,657 -184,179 -425,316 -724,411 -299,94 -667,142 -1105,142l-7643 0c-179,0 -269,-90 -269,-269l0 -1194c0,-179 90,-269 269,-269l7076 0c309,0 525,-55 650,-164 124,-110 187,-294 187,-552l0 -403c0,-199 -62,-353 -187,-463 -124,-109 -341,-164 -650,-164l-5016 0c-836,0 -1433,-172 -1791,-515 -358,-343 -538,-843 -538,-1500l0 -657c0,-309 40,-589 119,-843 80,-254 212,-471 396,-650 184,-179 425,-316 724,-410 299,-95 667,-142 1105,-142l7285 0z"/>
 </g>
</svg>
