<?xml version="1.0" encoding="UTF-8"?>
<!DOCTYPE svg PUBLIC "-//W3C//DTD SVG 1.1//EN" "http://www.w3.org/Graphics/SVG/1.1/DTD/svg11.dtd">
<!-- Creator: CorelDRAW X6 -->
<svg xmlns="http://www.w3.org/2000/svg" xml:space="preserve" width="281px" height="300px" version="1.1" style="shape-rendering:geometricPrecision; text-rendering:geometricPrecision; image-rendering:optimizeQuality; fill-rule:evenodd; clip-rule:evenodd"
viewBox="0 0 37316 39879"
 xmlns:xlink="http://www.w3.org/1999/xlink">
 <defs>
  <style type="text/css">
   <![CDATA[
    .fil1 {fill:#3E4095}
    .fil2 {fill:#0174BA}
    .fil0 {fill:#1A1413}
   ]]>
  </style>
 </defs>
 <g id="Capa_x0020_1">
  <metadata id="CorelCorpID_0Corel-Layer"/>
  <g id="_253668192">
   <g>
    <path class="fil0" d="M9376 24535l1093 0 419 -2803 2461 0 513 2803 945 0 -2277 -12433 -1295 0 -1857 12433zm1667 -3847l2113 0 -1276 -6355 -838 6355z"/>
    <path class="fil0" d="M16235 13421c0,2191 -46,2926 1812,4753 546,537 636,811 1137,1458 1030,1330 1003,1404 782,3932 -765,239 -1818,324 -2552,-60l-124 -2853 -899 -2c-222,449 -207,2561 -140,2971 123,754 98,512 487,786 778,464 3240,295 4265,36 155,-724 224,-3193 68,-3893 -216,-968 -3289,-4224 -3527,-4631 -290,-494 -277,-1150 -248,-1810 56,-1276 603,-1100 2671,-966l92 2675 1036 58c70,-3313 494,-3836 -1751,-3832 -1592,3 -3108,-388 -3108,1378z"/>
    <path class="fil0" d="M22462 13035l1946 119c177,1724 73,6381 72,8580 0,282 -1,563 -3,845 379,-195 774,-364 1181,-508 35,-2890 -247,-7315 -27,-8923 741,-90 1195,38 1723,-246l4 -693c-818,-407 -3744,-219 -4862,-122l-34 949z"/>
   </g>
   <path class="fil1" d="M26974 32275c-240,-37 -366,-108 -682,-2 -32,11 -96,36 -146,58 -287,129 -97,126 -791,-417 -159,-124 -475,-409 -631,-496 53,-410 108,-621 -157,-1037 -273,-427 -873,-618 -1386,-470 -880,253 -1195,1568 -314,2169 600,409 1152,68 1239,96l1121 925c452,346 55,388 333,892 722,1305 2651,466 2245,-879 -105,-348 -50,-215 296,-769 105,-168 224,-326 330,-488 226,-345 431,-654 653,-988l653 -978c845,212 711,-414 1220,-97l1297 772c59,1715 2434,1579 2434,3 0,-737 -710,-1280 -1363,-1189 -923,129 -105,606 -1385,-163 -261,-157 -515,-319 -767,-448 0,-1772 -2531,-1578 -2423,23 12,174 63,263 117,397 74,183 25,188 -80,330l-1213 1826c-168,278 -474,659 -602,931z"/>
   <path class="fil2" d="M18337 0c10127,0 18337,8210 18337,18337 0,2511 -505,4905 -1419,7084 1286,1530 2061,3504 2061,5659 0,4860 -3940,8799 -8800,8799 -2860,0 -5402,-1365 -7009,-3479 -1030,180 -2090,274 -3171,274 -10127,0 -18337,-8210 -18337,-18337 0,-10127 8210,-18337 18337,-18337zm10180 23830c4004,0 7250,3246 7250,7250 0,4004 -3246,7250 -7250,7250 -4004,0 -7250,-3246 -7250,-7250 0,-4004 3246,-7250 7250,-7250zm6702 1549c-32,-38 -64,-75 -97,-111l97 111zm-2605 -2087c539,-1552 832,-3219 832,-4954 0,-8344 -6765,-15109 -15109,-15109 -8344,0 -15109,6765 -15109,15109 0,8344 6765,15109 15109,15109 567,0 1127,-32 1678,-93 -194,-725 -297,-1487 -297,-2273 0,-4860 3940,-8799 8799,-8799 1480,0 2874,366 4097,1011z"/>
  </g>
 </g>
</svg>
