<?xml version="1.0" encoding="UTF-8"?>
<!DOCTYPE svg PUBLIC "-//W3C//DTD SVG 1.1//EN" "http://www.w3.org/Graphics/SVG/1.1/DTD/svg11.dtd">
<!-- Creator: CorelDRAW X6 -->
<svg xmlns="http://www.w3.org/2000/svg" xml:space="preserve" width="300px" height="300px" version="1.1" style="shape-rendering:geometricPrecision; text-rendering:geometricPrecision; image-rendering:optimizeQuality; fill-rule:evenodd; clip-rule:evenodd"
viewBox="0 0 43812 43841"
 xmlns:xlink="http://www.w3.org/1999/xlink">
 <defs>
  <style type="text/css">
   <![CDATA[
    .fil0 {fill:#454545}
    .fil1 {fill:#454545;fill-rule:nonzero}
   ]]>
  </style>
 </defs>
 <g id="Capa_x0020_1">
  <metadata id="CorelCorpID_0Corel-Layer"/>
  <g id="_299374104">
   <path class="fil0" d="M20052 86c-11536,1010 -21012,11047 -19974,23728 932,11390 11115,21058 23663,19939 11492,-1025 21019,-10936 19995,-23692 -917,-11430 -11117,-21074 -23684,-19975zm128 2024c-3900,382 -7965,1867 -10714,4272 -561,491 -902,634 -1333,1171 -421,524 -1342,1272 -2284,2580 -2809,3900 -4202,8588 -3769,13567 904,10391 10175,19178 21741,18037 10433,-1030 18944,-10135 17896,-21754 -923,-10233 -10214,-18983 -21538,-17873z"/>
   <path class="fil1" d="M9093 24483c-2049,0 -3074,-855 -3074,-2563 0,-1708 1025,-2562 3074,-2562l3588 0c341,0 512,-85 512,-256 0,-171 -171,-256 -512,-256l-6151 0 0 -2051 6662 0c2051,0 3076,855 3076,2563l0 2562 -3076 0c0,-341 -171,-512 -512,-512l-2563 0c-682,0 -1025,171 -1025,512 0,341 343,512 1025,512l6151 0 0 2051 -7176 0zm7688 -7688l7174 0c2051,0 3076,855 3076,2563l0 2562c0,1708 -1026,2563 -3076,2563l-3586 0c-343,0 -514,171 -514,512l0 2051 -3074 0 0 -7688 3074 0 0 2562c0,341 171,512 514,512l2563 0c682,0 1023,-341 1023,-1023l0 -1537c0,-684 -341,-1026 -1023,-1026l-6151 0 0 -2051zm10762 0l7174 0c2051,0 3076,855 3076,2563l0 2562c0,1708 -1026,2563 -3076,2563l-3586 0c-343,0 -514,171 -514,512l0 2051 -3074 0 0 -7688 3074 0 0 2562c0,341 171,512 514,512l2563 0c682,0 1023,-341 1023,-1023l0 -1537c0,-684 -341,-1026 -1023,-1026l-6151 0 0 -2051z"/>
  </g>
 </g>
</svg>
