<?xml version="1.0" encoding="UTF-8"?>
<!DOCTYPE svg PUBLIC "-//W3C//DTD SVG 1.1//EN" "http://www.w3.org/Graphics/SVG/1.1/DTD/svg11.dtd">
<!-- Creator: CorelDRAW X6 -->
<svg xmlns="http://www.w3.org/2000/svg" xml:space="preserve" width="300px" height="301px" version="1.1" style="shape-rendering:geometricPrecision; text-rendering:geometricPrecision; image-rendering:optimizeQuality; fill-rule:evenodd; clip-rule:evenodd"
viewBox="0 0 79445 79741"
 xmlns:xlink="http://www.w3.org/1999/xlink">
 <defs>
  <style type="text/css">
   <![CDATA[
    .fil3 {fill:none}
    .fil2 {fill:#2B2725}
    .fil0 {fill:#5586B5}
    .fil1 {fill:#5D676B}
   ]]>
  </style>
 </defs>
 <g id="Capa_x0020_1">
  <metadata id="CorelCorpID_0Corel-Layer"/>
  <g id="_289648528">
   <g>
    <path class="fil0" d="M41249 41310l21236 13035c3152,1987 4018,2849 8628,3117 53,-48 125,-198 148,-154l2162 -3488c743,-1424 -448,-2335 -1241,-3629 -1045,-1703 -846,-1280 -3802,-2001 -7626,-1860 -16282,-3676 -23514,-5981 -1509,-481 -2698,-833 -3869,-1124l0 0c0,0 0,0 0,0 58,25 176,192 251,224z"/>
    <path class="fil1" d="M40998 41086c222,2222 1752,6584 2339,9194l4233 18973c852,3706 2329,5027 3499,8077 1274,-153 6387,-2264 8299,-2983l1080 -523c42,-25 119,-75 175,-116 -1619,-6467 -5677,-11053 -9271,-16550 -2831,-4330 -8130,-11492 -10103,-15848 -75,-32 -193,-199 -251,-224z"/>
    <path class="fil2" d="M3190 42340c-160,1234 940,11538 1350,12421 394,471 4662,970 5457,1106 1857,316 4038,1126 5472,39l15313 -11428c1549,-1190 1943,-1746 4335,-2256 1901,-406 3854,-947 5817,-1150l-1 -1c-1598,-394 -3174,-677 -5499,-1023 -5355,-796 -16059,275 -21990,698 -3756,268 -6690,1062 -10256,1595z"/>
    <path class="fil1" d="M40797 39770c1182,-227 411,190 985,-705l11602 -23934c1304,-2762 1077,-8208 1116,-11531 -870,-557 -8542,-1920 -10079,-1966l-2196 8106c-618,2803 -441,6566 -743,9638 -658,6681 -691,13428 -685,20393z"/>
    <path class="fil1" d="M2657 34854c1316,1356 3881,2302 5587,3365 2710,1687 2778,981 7899,845l17065 -765c493,-899 948,-1458 1146,-2444 -1860,-637 -4617,-2100 -6573,-3054 -6196,-3025 -14369,-7293 -20891,-8654l-4233 10708z"/>
    <path class="fil1" d="M19434 74969c590,585 7438,4451 8304,4772 667,-477 4686,-4703 5130,-5445l6625 -25302 -2813 -1176c-1614,1869 -3083,4579 -4551,6573 -3521,4783 -11155,15577 -12695,20579z"/>
    <path class="fil1" d="M25857 5113c-23,1610 159,3182 206,4793 69,2324 -106,2193 893,4025l10615 19481 2528 -580c73,-1560 -1250,-20648 -1758,-23147 -415,-2040 -1207,-4858 -1409,-6939 -1900,222 -3816,747 -5673,1100 -1759,335 -4035,412 -5403,1266z"/>
    <path class="fil1" d="M45195 34069c1641,1125 2043,161 3464,-979l12636 -9805c1595,-1217 1614,-1126 2790,-3024 892,-1439 3832,-6246 4094,-7429 -761,-503 -3171,-2854 -3875,-3677 -1403,455 -5278,3103 -6789,4038 -2930,1813 -2235,1965 -4701,6396 -961,1727 -7541,13527 -7620,14479z"/>
    <path class="fil2" d="M12937 60089c272,974 4981,6717 5722,7359 2222,-719 4265,-2344 5417,-3958 1283,-1797 2674,-3734 3947,-5393 1187,-1546 7351,-9847 7758,-10871 -571,-807 -1785,-2690 -2494,-3221l-10422 7670c-3557,2734 -7512,5145 -9927,8412z"/>
    <path class="fil1" d="M36701 76577c1543,67 3062,155 4602,234 1260,64 3649,358 4448,-30 1079,-6585 -2247,-20700 -3156,-27802l-2224 75c-1174,4488 -2104,9022 -3111,13531 -885,3962 -2910,10069 -559,13993z"/>
    <path class="fil1" d="M15129 19740c341,1304 2245,4329 3029,5817 1119,2124 3079,2601 5123,3678 1991,1048 3717,2019 5745,3102 8208,4382 4746,3070 8045,1530 -738,-1557 -2401,-3441 -3425,-4909 -1305,-1871 -2341,-3199 -3505,-4804 -1503,-2072 -6083,-7886 -7952,-9043l-7060 4628z"/>
    <path class="fil1" d="M45659 47417c297,954 9962,14211 11923,16867 1000,1353 4551,2950 6469,3375l4109 -4543c-437,-1042 -2922,-5038 -3765,-5655l-16988 -11487 -1748 1443z"/>
    <path class="fil1" d="M48503 37897l411 1729 22970 1088c1318,-48 1845,-705 2703,-1373 2718,-2116 2204,-152 2090,-7552 -3801,-514 -3367,-1416 -7397,-241 -3179,927 -20048,5836 -20776,6349z"/>
    <path class="fil1" d="M47142 35627l976 1509c2898,-541 7498,-2365 10409,-3239 1703,-511 3510,-1024 5177,-1647 1136,-425 2858,-2326 3657,-3180 -311,-1156 -1989,-3517 -2558,-4749 -4422,-188 -5599,1721 -9548,4767 -1318,1017 -7536,5673 -8112,6539z"/>
   </g>
   <circle class="fil3" cx="39722" cy="39722" r="39722"/>
  </g>
 </g>
</svg>
