<?xml version="1.0" encoding="UTF-8"?>
<!DOCTYPE svg PUBLIC "-//W3C//DTD SVG 1.1//EN" "http://www.w3.org/Graphics/SVG/1.1/DTD/svg11.dtd">
<!-- Creator: CorelDRAW X6 -->
<svg xmlns="http://www.w3.org/2000/svg" xml:space="preserve" width="312px" height="312px" version="1.1" style="shape-rendering:geometricPrecision; text-rendering:geometricPrecision; image-rendering:optimizeQuality; fill-rule:evenodd; clip-rule:evenodd"
viewBox="0 0 81582 81643"
 xmlns:xlink="http://www.w3.org/1999/xlink">
 <defs>
  <style type="text/css">
   <![CDATA[
    .fil0 {fill:#2F87CD}
    .fil1 {fill:white}
   ]]>
  </style>
 </defs>
 <g id="Capa_x0020_1">
  <metadata id="CorelCorpID_0Corel-Layer"/>
  <g id="_460906472">
   <path class="fil0" d="M35062 449c-20599,3028 -38000,21818 -34646,46279 2792,20358 22002,37744 46152,34529 20405,-2717 37853,-22025 34627,-46156 -2743,-20517 -22210,-38170 -46133,-34652z"/>
   <path class="fil1" d="M37769 8339c-25583,2115 -40332,33983 -20360,55249 7271,7742 21613,12969 35425,7582 10377,-4047 18853,-13939 20365,-26913 424,-3639 168,-7494 -3983,-6931 -6250,848 1347,10886 -12224,23083 -10188,9156 -25156,6845 -33958,-1351 -14298,-13313 -7458,-39252 12488,-43070 3455,-661 7769,105 8674,-2945 1309,-4410 -2755,-5008 -6427,-4704z"/>
   <path class="fil1" d="M38522 22912c-14030,1659 -21169,19092 -11202,30049 10203,11217 28073,5595 31119,-8184 819,-3707 586,-8120 -3770,-7485 -4036,587 -2541,5196 -4220,8529 -2830,5619 -10656,8168 -16668,3226 -5439,-4470 -4894,-12867 676,-17006 2941,-2185 7583,-1402 9236,-3488 1094,-1380 854,-3473 -128,-4575 -1116,-1253 -2973,-1311 -5042,-1066z"/>
   <path class="fil1" d="M40054 37148c-5036,956 -3448,8581 1727,7368 4373,-1025 3418,-8344 -1727,-7368z"/>
  </g>
 </g>
</svg>
