<?xml version="1.0" encoding="UTF-8"?>
<!DOCTYPE svg PUBLIC "-//W3C//DTD SVG 1.1//EN" "http://www.w3.org/Graphics/SVG/1.1/DTD/svg11.dtd">
<!-- Creator: CorelDRAW X6 -->
<svg xmlns="http://www.w3.org/2000/svg" xml:space="preserve" width="300px" height="300px" version="1.1" style="shape-rendering:geometricPrecision; text-rendering:geometricPrecision; image-rendering:optimizeQuality; fill-rule:evenodd; clip-rule:evenodd"
viewBox="0 0 42535 42535"
 xmlns:xlink="http://www.w3.org/1999/xlink">
 <defs>
  <style type="text/css">
   <![CDATA[
    .fil0 {fill:#D74E28}
    .fil1 {fill:white}
   ]]>
  </style>
 </defs>
 <g id="Capa_x0020_1">
  <metadata id="CorelCorpID_0Corel-Layer"/>
  <g id="_299362752">
   <circle class="fil0" cx="21268" cy="21268" r="21268"/>
   <path class="fil1" d="M10417 24717c-2,576 29,1104 120,1295 382,797 1688,550 2722,550l6661 0c-55,1774 515,3503 -1531,3501 -859,-1 -1469,-29 -2181,220 -516,181 -1214,687 -912,1336 225,262 7013,129 7846,129 -47,-238 -284,-427 -439,-658 -1279,-1910 -1545,-4182 -798,-6352l-9614 -59 7 -10833 17942 -46 1 6388c127,211 719,313 943,405 260,108 676,340 870,398l56 -7116c11,-1375 -117,-1915 -1446,-1908l-18412 2c-912,-1 -1630,-35 -1786,795l-47 11956zm16767 3707c-327,574 -1245,1116 -1429,1681 64,419 414,721 786,840 404,-137 1476,-1356 1910,-1788 1069,-1064 643,-801 -1462,-2947 -497,-507 -735,-340 -1116,122 -620,753 1059,1277 1311,2092zm3392 -67c330,-91 692,-436 761,-773 -133,-609 -1267,-1202 -1431,-1765 29,-399 1519,-1239 1457,-1765 -102,-265 -453,-705 -785,-699 -349,7 -1982,1756 -2274,2042 -569,556 -137,744 741,1618 244,243 475,475 711,719 242,249 397,550 820,624zm-2054 -7218c3301,0 5978,2676 5978,5978 0,3301 -2676,5978 -5978,5978 -3301,0 -5978,-2676 -5978,-5978 0,-3301 2676,-5978 5978,-5978z"/>
  </g>
 </g>
</svg>
