<?xml version="1.0" encoding="UTF-8"?>
<!DOCTYPE svg PUBLIC "-//W3C//DTD SVG 1.1//EN" "http://www.w3.org/Graphics/SVG/1.1/DTD/svg11.dtd">
<!-- Creator: CorelDRAW X6 -->
<svg xmlns="http://www.w3.org/2000/svg" xml:space="preserve" width="300px" height="300px" version="1.1" style="shape-rendering:geometricPrecision; text-rendering:geometricPrecision; image-rendering:optimizeQuality; fill-rule:evenodd; clip-rule:evenodd"
viewBox="0 0 43534 43534"
 xmlns:xlink="http://www.w3.org/1999/xlink">
 <defs>
  <style type="text/css">
   <![CDATA[
    .fil2 {fill:none}
    .fil0 {fill:#1066B1}
    .fil1 {fill:#5A96C9}
   ]]>
  </style>
 </defs>
 <g id="Capa_x0020_1">
  <metadata id="CorelCorpID_0Corel-Layer"/>
  <g id="_446888248">
   <path class="fil0" d="M7013 8633c0,472 2,944 -1,1416l132 2765c39,467 -22,1005 3,1479 23,431 68,812 68,1347 -1,570 71,909 69,1413 -4,1032 71,1812 65,2832 -3,524 70,792 68,1346 -2,554 26,964 64,1418 37,440 -12,962 1,1413 15,502 71,550 70,1412 -3,2100 731,4106 1670,5605 195,310 364,602 581,901 210,290 384,527 606,809l2138 2241c612,489 827,738 1626,1338 289,217 521,382 818,597 715,520 1497,938 2259,1379 711,411 4061,2085 4517,2085 600,0 4692,-2107 5834,-2857 313,-206 555,-338 863,-552 309,-214 567,-406 858,-624l1591 -1306c1230,-1093 1779,-1723 2760,-3034l1119 -1845c603,-1210 1197,-2820 1190,-4604 -2,-523 9,-930 57,-1357 50,-443 -6,-1014 8,-1474 10,-333 62,-337 72,-669 7,-240 -2,-501 -2,-743 -1,-571 71,-909 69,-1413 -4,-1027 71,-1805 65,-2832l132 -2765c37,-440 -12,-962 1,-1413 15,-502 71,-550 69,-1412 -1,-571 71,-909 69,-1413 -2,-495 -2,-989 -2,-1484 -228,-53 -543,-193 -800,-278 -2600,-863 -5160,-1479 -7902,-1866 -333,-47 -651,-99 -944,-134 -355,-43 -609,-51 -979,-99 -1160,-148 -1900,-189 -3052,-182 -402,2 -587,-52 -898,-68l-353 0c-298,16 -454,70 -835,69l-1555 62c-557,44 -670,-9 -1507,110l-3830 549c-2006,345 -4068,898 -6003,1542 -284,95 -610,239 -850,295zm2566 2560l455 15022c126,4476 5945,8177 9175,10037 361,208 2206,1228 2532,1301 424,94 3261,-1459 3871,-1833 3544,-2168 6815,-5283 7916,-9467 329,-1249 340,-5743 382,-7312 63,-2352 242,-5617 215,-7827l-2721 -796c-5188,-1280 -11656,-1549 -16954,-573 -1143,211 -4113,905 -4871,1450z"/>
   <polygon class="fil0" points="19021,18048 19274,18068 24225,18065 24225,14494 19021,14495 "/>
   <polygon class="fil0" points="19058,27651 24151,27636 24175,24114 19058,24114 "/>
   <path class="fil0" d="M26129 18065l4395 0c0,-977 40,-1878 -613,-2688 -963,-1194 -1994,-916 -3787,-916l4 3604z"/>
   <path class="fil0" d="M26127 27647c658,0 1315,-2 1972,0 786,2 1035,11 1521,-449 851,-806 904,-1634 904,-3071l-4374 -53 -22 3573z"/>
   <path class="fil0" d="M13009 18065l4396 0 0 -3570c-1543,0 -2387,-289 -3454,538 -272,211 -602,730 -758,1194 -222,661 -183,1135 -183,1838z"/>
   <path class="fil0" d="M17401 27634l0 -3520 -4341 54c-165,1302 171,2368 849,3035 684,673 2399,413 3492,431z"/>
   <polygon class="fil0" points="13008,22443 17404,22443 17402,19698 13026,19698 "/>
   <polygon class="fil0" points="26127,22443 30457,22443 30525,22443 30522,19698 26154,19698 "/>
   <path class="fil1" d="M19058 27651l0 -3537 5116 0 -23 3522c169,-119 90,-349 89,-814l-12 -2731c-412,-97 -4638,-78 -5212,-18l-21 3360c16,164 -16,-36 20,120l43 99z"/>
   <path class="fil1" d="M17401 27634c118,-213 60,-569 60,-812l-18 -2750 -4101 -1c-2,0 -104,7 -127,13 -169,42 -35,-18 -155,83l4341 -54 0 3520z"/>
  </g>
  <circle class="fil2" cx="21767" cy="21767" r="21767"/>
 </g>
</svg>
