<?xml version="1.0" encoding="UTF-8"?>
<!DOCTYPE svg PUBLIC "-//W3C//DTD SVG 1.1//EN" "http://www.w3.org/Graphics/SVG/1.1/DTD/svg11.dtd">
<!-- Creator: CorelDRAW X6 -->
<svg xmlns="http://www.w3.org/2000/svg" xml:space="preserve" width="300px" height="300px" version="1.1" style="shape-rendering:geometricPrecision; text-rendering:geometricPrecision; image-rendering:optimizeQuality; fill-rule:evenodd; clip-rule:evenodd"
viewBox="0 0 43519 43547"
 xmlns:xlink="http://www.w3.org/1999/xlink">
 <defs>
  <style type="text/css">
   <![CDATA[
    .fil1 {fill:#96989A}
    .fil0 {fill:#010101}
    .fil4 {fill:#454545}
    .fil2 {fill:#646566}
    .fil3 {fill:#96979A}
   ]]>
  </style>
 </defs>
 <g id="Capa_x0020_1">
  <metadata id="CorelCorpID_0Corel-Layer"/>
  <path class="fil0" d="M33643 19022c0,-1130 -196,-1705 -819,-2398 -613,-681 -1524,-974 -2563,-903 -551,38 -846,99 -1543,51 -1333,-92 -1429,-248 -1636,961 -47,273 -61,522 -90,799 -29,278 -98,468 -131,780l-265 2013c-28,149 -53,129 -78,351 -39,341 -101,524 -134,782 -70,552 -94,1096 -198,1633 -156,805 -273,2207 -446,3214 -107,622 -8,797 1218,663 320,-35 415,-103 466,-436 41,-270 77,-521 129,-797 111,-585 168,-1825 354,-2336 413,-1135 2636,474 4692,-1707 578,-613 1044,-1615 1044,-2669zm-4815 -1625c-204,245 -204,276 -223,689l-346 2518c-120,845 306,708 1064,713 739,5 1085,17 1580,-330 1055,-739 1629,-3079 -190,-3569 -281,-76 -1545,-56 -1886,-22z"/>
  <path class="fil0" d="M12959 15805c-376,-37 -926,67 -1270,129 -385,69 -860,147 -1261,232 -2084,443 -4502,1595 -5180,3746 -774,2457 219,4764 2393,5917 392,208 1679,800 2166,767 254,39 161,84 499,147 994,185 349,49 1111,107l426 72c173,76 -11,-64 113,73 570,-34 771,30 1184,94 302,47 966,8 1308,9 1449,6 1492,-210 1334,-1147 -371,-129 -1571,-186 -1995,-122 -335,55 -371,-18 -571,-113l-1103 -221c-486,-135 -445,33 -548,-175 -957,-274 -1798,-859 -2325,-1587 -857,-1183 -941,-3533 -21,-4649 682,-827 1292,-1300 2337,-1685 318,-117 1290,-443 1605,-391 270,-236 772,-191 1342,-213 1075,-41 1490,87 1517,-416 9,-161 5,-329 -92,-437 -298,-333 -2483,-118 -2968,-137z"/>
  <path class="fil0" d="M19887 15937l-1467 10135c-145,1208 58,884 2314,916l2362 10c466,0 933,59 1082,-325 121,-311 169,-940 -23,-1215 -1143,-116 -2495,44 -3783,-64 -103,-297 361,-3052 439,-3811 28,-274 69,-419 103,-596 78,-408 -40,-347 120,-935 101,-368 396,-2954 484,-3494 155,-956 -185,-867 -1013,-867 -300,0 -428,126 -620,247z"/>
  <path class="fil0" d="M37093 15754c-1566,0 -968,104 -1403,2590 -172,984 -250,2089 -441,3084 -46,239 -29,561 -85,811 -226,1014 -394,2729 -582,3808 -159,908 -46,950 803,940 860,-10 829,-119 901,-907l229 -1528c338,-2012 585,-4156 861,-6186 68,-495 138,-1046 215,-1568 98,-665 393,-1044 -498,-1044z"/>
  <path class="fil1" d="M11564 25320c103,209 62,40 548,175l1103 221c200,94 235,168 571,113l-349 -194c101,-174 779,-599 1079,-867 822,-733 2615,-2225 2158,-3675 -370,-1178 -2144,-887 -2892,-816 -541,51 -1131,203 -1586,352 -245,80 -560,143 -786,224 -200,72 -543,165 -608,382 370,164 1720,12 2290,193 858,273 1275,287 902,1331 -299,838 -871,1650 -1582,2164 -227,164 -427,437 -849,397z"/>
  <path class="fil2" d="M11956 26995c-124,-137 60,3 -113,-73l-426 -72c-762,-58 -117,79 -1111,-107 -337,-63 -244,-107 -499,-147l17 254c-244,121 -724,367 -932,505 -293,195 -1996,960 -2679,1397 -210,134 -123,22 -215,209 808,-1 4921,-1996 5005,-2011 280,-51 596,90 952,45z"/>
  <path class="fil3" d="M12959 15805c485,19 2670,-196 2968,137 97,108 101,276 92,437 -27,502 -443,375 -1517,416 -570,21 -1072,-23 -1342,213 334,32 622,-80 901,-99 334,-23 661,-13 992,-31 866,-47 1159,96 1010,-940 -282,-516 -2932,-260 -2976,-244 -165,61 -64,16 -127,112z"/>
  <path class="fil4" d="M19918 85c-11459,1003 -20871,10973 -19840,23569 926,11314 11040,20917 23504,19805 11415,-1018 20879,-10862 19861,-23534 -911,-11353 -11042,-20933 -23526,-19841zm127 2011c-3874,380 -7912,1855 -10642,4244 -557,488 -896,629 -1324,1163 -418,521 -1333,1263 -2269,2562 -2791,3874 -4174,8531 -3744,13476 898,10321 10107,19050 21596,17916 10363,-1023 18817,-10067 17776,-21608 -917,-10164 -10145,-18856 -21393,-17753z"/>
 </g>
</svg>
