<?xml version="1.0" encoding="UTF-8"?>
<!DOCTYPE svg PUBLIC "-//W3C//DTD SVG 1.1//EN" "http://www.w3.org/Graphics/SVG/1.1/DTD/svg11.dtd">
<!-- Creator: CorelDRAW X6 -->
<svg xmlns="http://www.w3.org/2000/svg" xml:space="preserve" width="312px" height="312px" version="1.1" style="shape-rendering:geometricPrecision; text-rendering:geometricPrecision; image-rendering:optimizeQuality; fill-rule:evenodd; clip-rule:evenodd"
viewBox="0 0 45563 45563"
 xmlns:xlink="http://www.w3.org/1999/xlink">
 <defs>
  <style type="text/css">
   <![CDATA[
    .fil4 {fill:none}
    .fil3 {fill:#0D5DAC}
    .fil0 {fill:white}
    .fil1 {fill:#0174BA;fill-rule:nonzero}
    .fil2 {fill:#454545;fill-rule:nonzero}
   ]]>
  </style>
 </defs>
 <g id="Capa_x0020_1">
  <metadata id="CorelCorpID_0Corel-Layer"/>
  <path class="fil0" d="M23413 35432l0 -164c3,-24 16,-180 44,-262 39,-112 207,-349 264,-434 518,126 488,456 744,60 356,-551 151,-2808 -1584,-2313 -1206,343 -1477,3072 531,3113z"/>
  <g id="_300065352">
   <g>
    <path class="fil1" d="M28724 35547l-3961 7186c-268,473 -676,708 -1226,708l-705 0 0 -4987 -2750 4301c-297,458 -733,686 -1312,686l-798 0 586 -6481 -2608 0 862 -1413 2482 0c303,0 563,69 779,207 291,191 438,488 438,893 0,59 -4,122 -11,186l-402 3802 2674 -4246c192,-303 362,-508 512,-617 211,-149 496,-224 860,-224l552 0 0 4978 2689 -4978 1341 0z"/>
    <path class="fil2" d="M32731 24828c169,0 253,84 253,253l0 4585c0,306 25,561 75,764 50,203 132,364 247,482 115,119 270,203 465,253 195,50 443,75 741,75l4654 0c168,0 253,84 253,253l0 1126c0,169 -84,253 -253,253l-4723 0c-582,0 -1076,-54 -1482,-161 -406,-108 -737,-282 -994,-523 -257,-241 -444,-555 -563,-942 -119,-387 -178,-856 -178,-1407l0 -4757c0,-169 88,-253 264,-253l1241 0z"/>
    <path class="fil2" d="M26606 24828c582,0 1078,56 1488,167 410,111 743,287 1000,528 257,241 443,554 557,937 115,383 172,850 172,1402l0 1781c0,935 -174,1637 -523,2108 -348,471 -929,760 -1741,868l1321 1827c31,38 40,96 29,172 -11,77 -71,115 -178,115l-1471 0c-100,0 -168,-12 -207,-35 -38,-23 -77,-57 -115,-103l-1321 -1919 -2563 0c-582,0 -1076,-54 -1482,-161 -406,-107 -737,-282 -994,-523 -257,-241 -444,-555 -563,-942 -119,-387 -178,-856 -178,-1408l0 -1781c0,-552 59,-1019 178,-1402 119,-383 306,-696 563,-937 257,-241 588,-417 994,-528 406,-111 900,-167 1482,-167l3551 0zm-5010 4688c0,299 25,550 75,753 50,203 132,364 247,482 115,119 270,203 466,253 196,50 442,75 741,75l3413 0c299,0 546,-25 741,-75 195,-50 350,-134 465,-253 115,-119 197,-279 247,-482 50,-203 74,-454 74,-753l0 -1528c0,-299 -25,-550 -74,-753 -50,-203 -132,-364 -247,-483 -115,-119 -270,-203 -465,-253 -195,-50 -442,-75 -741,-75l-3413 0c-299,0 -546,25 -741,75 -195,50 -350,134 -466,253 -115,119 -197,280 -247,483 -50,203 -75,454 -75,753l0 1528z"/>
    <path class="fil2" d="M18068 24828c168,0 253,84 253,253l0 1092c0,168 -84,253 -253,253l-5757 0c-222,0 -379,57 -471,172 -92,115 -138,272 -138,471l0 391c0,429 199,643 597,643l4309 0c667,0 1168,171 1505,512 337,341 506,829 506,1465l0 919c0,559 -165,1011 -494,1356 -329,345 -843,517 -1540,517l-6366 0c-176,0 -264,-84 -264,-253l0 -1092c0,-169 88,-253 264,-253l6033 0c222,0 379,-57 471,-172 92,-115 138,-272 138,-471l0 -471c0,-429 -199,-644 -598,-644l-4309 0c-667,0 -1168,-171 -1506,-511 -337,-341 -505,-829 -505,-1465l0 -839c0,-559 165,-1011 494,-1356 329,-345 843,-517 1540,-517l6090 0z"/>
    <path class="fil2" d="M8301 24828c168,0 253,84 253,253l0 7538c0,169 -84,253 -253,253l-1241 0c-176,0 -264,-84 -264,-253l0 -7538c0,-169 88,-253 264,-253l1241 0z"/>
   </g>
   <g>
    <path class="fil3" d="M9184 13920l0 -4073c1962,1437 7265,2467 13499,2467 6235,0 11537,-1030 13499,-2467l0 4073c-1962,1437 -7265,2467 -13499,2467 -6235,0 -11537,-1030 -13499,-2467z"/>
    <ellipse class="fil3" cx="22683" cy="6829" rx="13499" ry="3228"/>
    <path class="fil3" d="M9184 20091l0 -4073c1962,1437 7265,2467 13499,2467 6235,0 11537,-1030 13499,-2467l0 4073c-1962,1437 -7265,2467 -13499,2467 -6235,0 -11537,-1030 -13499,-2467z"/>
   </g>
  </g>
  <circle class="fil4" cx="22782" cy="22782" r="22782"/>
 </g>
</svg>
