<?xml version="1.0" encoding="UTF-8"?>
<!DOCTYPE svg PUBLIC "-//W3C//DTD SVG 1.1//EN" "http://www.w3.org/Graphics/SVG/1.1/DTD/svg11.dtd">
<!-- Creator: CorelDRAW X6 -->
<svg xmlns="http://www.w3.org/2000/svg" xml:space="preserve" width="300px" height="300px" version="1.1" style="shape-rendering:geometricPrecision; text-rendering:geometricPrecision; image-rendering:optimizeQuality; fill-rule:evenodd; clip-rule:evenodd"
viewBox="0 0 62142 62142"
 xmlns:xlink="http://www.w3.org/1999/xlink">
 <defs>
  <style type="text/css">
   <![CDATA[
    .fil2 {fill:none}
    .fil1 {fill:#3B87C7}
    .fil0 {fill:#211F20}
   ]]>
  </style>
 </defs>
 <g id="Capa_x0020_1">
  <metadata id="CorelCorpID_0Corel-Layer"/>
  <g id="_305725000">
   <path class="fil0" d="M9481 22751c-76,922 -10,5495 -10,6805l0 13874c0,790 -38,1536 -41,2234l0 144c5,1377 171,2565 1084,3538 1462,1559 3177,1230 5721,1230l27748 0c1144,0 2292,10 3435,-1 1313,-12 1939,86 3033,-477 2108,-1086 2003,-3151 2002,-4950 -3,-6899 -63,-13945 -2,-20811 16,-1798 200,-2683 -1332,-3834 -340,-255 -731,-471 -1059,-725 -658,-511 -1270,-984 -1949,-1483 -678,-498 -1365,-957 -2020,-1489 -246,-2288 509,-3841 -1324,-5011 -766,-489 -1746,-375 -2765,-375 -1044,0 -2139,33 -3176,5 -504,-14 -1552,-893 -1989,-1212l-3725 -2619c-300,-221 -613,-418 -929,-657 -283,-214 -622,-543 -1148,-453 -496,80 -709,375 -1106,626l-4694 3234c-825,595 -1356,1085 -2127,1077 -1054,-11 -2118,-7 -3172,-1 -1084,6 -1867,-110 -2767,371 -1639,875 -1330,2862 -1330,5015l-4397 3266c-1089,670 -1873,1306 -1959,2680zm36609 2500l1853 -1512c394,-351 1688,-1326 1856,-1583l-2767 -1926c-286,-197 -643,-516 -936,-645l-6 5666zm-18631 -13859l7356 27c-11,-31 -29,-70 -34,-58l-371 -309c-535,-376 -2962,-2192 -3243,-2315 -468,287 -3502,2412 -3707,2656zm-15342 10863c246,106 2360,1890 2739,2206 199,166 255,229 458,396 296,243 294,303 523,377l0 -5606 -3532 2360c-248,226 -91,-11 -188,267zm31937 4738c77,-771 20,-10714 20,-11774 0,-2119 315,-1794 -4121,-1782l-20547 2c-1470,1 -1537,-48 -1537,1449l0 8853c0,926 -63,2082 -4,2979 27,418 1116,1185 1464,1458 1467,1151 3361,2783 4844,4010l2378 1980c394,356 656,238 1311,238 1960,0 3920,0 5880,0 1606,0 1248,86 2210,-724l8102 -6690zm-32556 19359c250,-91 612,-452 820,-629 1596,-1353 3441,-2766 5003,-4114 243,-209 547,-475 828,-691 582,-447 1102,-914 1677,-1367 591,-467 1071,-914 1656,-1379l2508 -2053c265,-223 581,-513 840,-669 -126,-253 -1319,-1163 -1632,-1427l-11693 -9664 -7 21992zm940 1937c549,423 2634,280 3533,284l31052 -8c938,0 1746,127 2485,-267l-4341 -3603c-1475,-1194 -2962,-2408 -4422,-3640l-4963 -4088c-976,-790 -572,-545 -2502,-545 -236,0 -6217,-105 -6549,64l-4776 3942c-1862,1484 -3905,3294 -5729,4712l-2866 2354c-299,261 -649,512 -923,795zm24677 -12919c130,266 4156,3476 4954,4159 1297,1110 8200,6769 8374,6826l0 -21978c-264,78 -3487,2817 -4204,3407l-8301 6892c-243,211 -544,475 -823,693z"/>
   <path class="fil1" d="M34514 27740c-181,201 -1119,696 -1530,857 -3354,1313 -7751,698 -6661,-4088 146,-640 390,-1245 678,-1762 170,-306 296,-476 508,-745 906,-1148 2085,-2049 3767,-2377 1533,-299 3145,-168 3978,755 827,918 938,2443 383,3802 -267,655 -520,1045 -929,1514 -619,709 -1992,1521 -1559,295 580,-1642 1304,-3351 1849,-4959l-1864 -193 -164 450c-286,-225 -172,-332 -654,-482 -362,-113 -773,-100 -1148,-47 -3137,444 -5060,5889 -2750,6990 948,452 2331,114 3099,-691l182 -186c148,-97 -39,-46 77,-26 122,569 153,844 780,938 2247,338 5845,-3704 5128,-7058 -820,-3837 -6631,-3714 -9673,-1861 -1399,852 -2541,2048 -3259,3746 -1558,3684 -409,8097 5292,7670 1477,-110 2813,-523 3994,-1292 465,-302 659,-501 478,-1251zm-2074 -5550c-1730,-1012 -3537,3070 -2797,3936 286,334 914,265 1281,16 491,-333 924,-1807 1179,-2520 161,-450 452,-958 337,-1433z"/>
  </g>
  <circle class="fil2" cx="31071" cy="31071" r="31071"/>
 </g>
</svg>
