<?xml version="1.0" encoding="UTF-8"?>
<!DOCTYPE svg PUBLIC "-//W3C//DTD SVG 1.1//EN" "http://www.w3.org/Graphics/SVG/1.1/DTD/svg11.dtd">
<!-- Creator: CorelDRAW X6 -->
<svg xmlns="http://www.w3.org/2000/svg" xml:space="preserve" width="300px" height="300px" version="1.1" style="shape-rendering:geometricPrecision; text-rendering:geometricPrecision; image-rendering:optimizeQuality; fill-rule:evenodd; clip-rule:evenodd"
viewBox="0 0 42821 42849"
 xmlns:xlink="http://www.w3.org/1999/xlink">
 <defs>
  <style type="text/css">
   <![CDATA[
    .fil0 {fill:#454545}
    .fil1 {fill:white}
   ]]>
  </style>
 </defs>
 <g id="Capa_x0020_1">
  <metadata id="CorelCorpID_0Corel-Layer"/>
  <g id="_299377152">
   <g>
    <path class="fil0" d="M10843 12972c-319,1335 -77,9247 -86,11803 -3,816 -399,1170 -748,1688 -395,586 -1767,2363 -1921,2891l26635 -6c-100,-384 -1555,-2389 -1873,-2833 -1117,-1561 -788,-1429 -788,-3984 0,-1951 240,-8163 -94,-9570 -1671,-323 -8392,-114 -10791,-113 -1228,1 -9861,-141 -10333,124z"/>
    <polygon class="fil1" points="11625,24815 31196,24813 31191,13717 11653,13722 "/>
    <path class="fil0" d="M34797 29464l-10490 -28c-325,663 -237,737 -1111,751l-3593 0c-852,-16 -765,-143 -1111,-732l-10490 -18c52,1495 1016,1257 2327,1256l22030 0c1382,0 2392,300 2439,-1229z"/>
   </g>
   <path class="fil0" d="M19598 84c-11275,987 -20536,10797 -19522,23191 911,11133 10863,20582 23127,19488 11232,-1002 20544,-10688 19543,-23156 -897,-11171 -10865,-20597 -23148,-19523zm125 1978c-3812,374 -7785,1825 -10471,4176 -548,480 -882,619 -1303,1144 -411,512 -1312,1243 -2232,2521 -2746,3812 -4107,8394 -3684,13260 883,10156 9945,18744 21249,17629 10197,-1006 18515,-9906 17491,-21262 -902,-10001 -9983,-18554 -21050,-17468z"/>
  </g>
 </g>
</svg>
