<?xml version="1.0" encoding="UTF-8"?>
<!DOCTYPE svg PUBLIC "-//W3C//DTD SVG 1.1//EN" "http://www.w3.org/Graphics/SVG/1.1/DTD/svg11.dtd">
<!-- Creator: CorelDRAW X6 -->
<svg xmlns="http://www.w3.org/2000/svg" xml:space="preserve" width="300px" height="300px" version="1.1" style="shape-rendering:geometricPrecision; text-rendering:geometricPrecision; image-rendering:optimizeQuality; fill-rule:evenodd; clip-rule:evenodd"
viewBox="0 0 92754 92754"
 xmlns:xlink="http://www.w3.org/1999/xlink">
 <defs>
  <style type="text/css">
   <![CDATA[
    .fil1 {fill:none}
    .fil0 {fill:black}
   ]]>
  </style>
 </defs>
 <g id="Capa_x0020_1">
  <metadata id="CorelCorpID_0Corel-Layer"/>
  <g id="_448192008">
   <g>
    <path class="fil0" d="M67077 68948c501,-198 954,-266 1491,-704 405,-331 651,-809 1106,-1134 68,-852 333,-1236 328,-2526l-1 -19334 -2796 0 0 15386 -47575 -24c-212,-3388 -60,-7594 -26,-11051l4 -16726c-5,-1114 -11,-1552 1136,-1588l13759 26c-240,-579 -704,-936 -643,-1672 -121,-156 -70,-43 -156,-309 -30,-94 -39,-131 -56,-236 -42,-264 -16,-370 7,-613l-13394 -1c-1773,164 -3255,1486 -3415,3228 -177,1922 -10,4765 -10,6787 0,8935 -150,17997 -4,26916 31,1901 1392,3330 3052,3599 1320,214 35370,52 40452,52 1666,0 5304,193 6743,-77zm-23920 -5486c-1827,433 -1276,3099 565,2702 1771,-383 1127,-3102 -565,-2702z"/>
    <path class="fil0" d="M36399 14907l944 1212c309,48 4372,4538 4801,4997l4858 5203c654,626 1038,1073 1584,1684l3227 3429c631,687 845,1201 2248,1205l20068 -5 54 18217 2828 -6c0,-2313 -156,-17278 77,-18211 1310,0 2800,47 2704,-1479 -51,-811 -1334,-1875 -1822,-2363l-14835 -14817c-1138,-1131 -1091,-946 -3192,-944l-21164 -1c-675,-3 -1300,-50 -1774,266 -618,412 -512,778 -606,1613z"/>
    <path class="fil0" d="M39434 23181c-136,336 -285,642 -524,777 -202,599 -878,1567 -1252,2137 -424,646 -729,1382 -1283,1888 238,1499 129,827 727,1835l6833 7747c179,272 816,967 1048,1226 775,866 2821,3438 3474,3582 1020,225 16434,47 18932,55 3224,9 2612,-452 2612,-6976 -2633,0 -15907,190 -17374,-153 -1780,-412 -2767,-1803 -3674,-2840l-1531 -1602c-494,-528 -1007,-1057 -1509,-1619 -537,-601 -886,-990 -1528,-1609 -554,-534 -966,-1084 -1494,-1648 -571,-609 -1025,-1025 -1534,-1601 -467,-528 -1039,-1131 -1530,-1605l-392 403z"/>
    <path class="fil0" d="M33140 74587c-3,4 -1926,1549 -285,2586 722,456 10946,245 12195,232 2471,-27 5905,217 8239,-12 1266,-124 1715,-1583 914,-2367 -500,-490 -2144,-362 -3144,-1011 -1396,-1015 -1183,-1291 -1845,-2202l-11610 16c-272,302 -1474,3219 -4465,2758z"/>
    <path class="fil0" d="M73833 59197l840 1372c298,475 549,1068 945,1364 755,-936 1423,-2478 1881,-2824 179,-1086 1339,-2067 730,-3669 -963,-2533 -4603,-2333 -5315,172 -410,1442 534,2591 920,3585z"/>
   </g>
   <circle class="fil1" cx="46377" cy="46377" r="46377"/>
  </g>
 </g>
</svg>
