<?xml version="1.0" encoding="UTF-8"?>
<!DOCTYPE svg PUBLIC "-//W3C//DTD SVG 1.1//EN" "http://www.w3.org/Graphics/SVG/1.1/DTD/svg11.dtd">
<!-- Creator: CorelDRAW X6 -->
<svg xmlns="http://www.w3.org/2000/svg" xml:space="preserve" width="300px" height="300px" version="1.1" style="shape-rendering:geometricPrecision; text-rendering:geometricPrecision; image-rendering:optimizeQuality; fill-rule:evenodd; clip-rule:evenodd"
viewBox="0 0 43183 43183"
 xmlns:xlink="http://www.w3.org/1999/xlink">
 <defs>
  <style type="text/css">
   <![CDATA[
    .fil8 {fill:none}
    .fil2 {fill:#06696D}
    .fil0 {fill:#068287}
    .fil1 {fill:#0E9AA0}
    .fil7 {fill:#0F5A5D}
    .fil6 {fill:#1D4D4E}
    .fil5 {fill:#1EB0B9}
    .fil3 {fill:#3CC1CC}
    .fil4 {fill:#FEFEFE}
   ]]>
  </style>
 </defs>
 <g id="Capa_x0020_1">
  <metadata id="CorelCorpID_0Corel-Layer"/>
  <g id="_309154232">
   <g>
    <path class="fil0" d="M16222 29566l1416 -15c431,-15 965,-13 1434,-7 907,13 1864,163 2349,-787 31,-62 47,-102 65,-167l69 -213 36 154c22,413 -11,842 -255,1173l-274 316c-120,118 -363,229 -530,268 -142,33 -110,19 -146,63 121,14 648,3 785,-10 504,-49 946,-443 1128,-918 37,-98 51,-244 90,-328l2 -4986c-159,26 -280,26 -441,47 -92,12 -202,48 -307,40 -139,-11 -31,4 -83,-21 -60,-187 -12,-2257 -12,-2652l7 -5293c9,-878 -21,-1775 -2,-2652 -22,-65 -24,-124 -45,-192 -130,-427 -619,-916 -867,-883 -606,-159 -1363,-103 -2013,-103l-4140 0c-678,0 -1394,21 -2071,-2 -700,-49 -1583,-3 -2306,-3 -686,0 -4188,-56 -4578,56 -560,161 -1002,656 -1038,1297 -40,722 -1,1570 -1,2305l1 11621c0,730 -5,1184 654,1651 471,334 1344,219 1998,232 845,16 8946,-55 9077,7z"/>
    <path class="fil1" d="M22390 24111c105,-46 795,-58 970,-24l133 40c742,10 1773,434 2416,763 630,322 1322,910 1769,1425 1099,1268 1796,2974 1649,4770 2421,-63 4119,-786 5819,-2298 1500,-1334 2465,-3374 2678,-5428 239,-2306 -505,-4504 -1843,-6203 -1159,-1472 -3138,-2758 -5071,-3052 -1353,-312 -2972,-130 -4188,256 -1230,390 -2183,1015 -3011,1720 -218,185 -417,358 -588,596 -72,100 -178,207 -274,317 -532,615 -445,561 -444,1250 1,585 15,5647 -15,5868z"/>
    <path class="fil2" d="M12416 12401c677,22 1393,2 2071,2l4140 0c650,0 1407,-55 2013,103 -39,-175 -27,-55 28,-104 214,9 388,-7 572,31l209 100c46,47 82,58 55,127l51 -114 118 74c52,42 15,20 111,43 -12,162 -26,108 -68,239 0,-107 12,-108 53,-181 134,23 37,-23 141,52 80,58 54,84 102,139l94 124c1,2 3,9 4,10 1,2 5,8 6,10l48 266c-28,176 11,31 -16,43 53,-29 -61,-105 106,-165 22,72 9,76 13,115 4,36 -2,16 9,53 30,106 45,76 56,236 12,185 68,213 24,529l-62 -12c69,50 110,74 71,200 -26,84 -127,105 11,58 -2,247 -129,249 1,205 -1,36 -1,76 -7,112 -19,109 2,6 -22,80 -15,46 -20,31 31,15l-29 238c24,209 9,70 -8,203 -1,8 -2,69 1,94l18 135c-5,153 -29,34 -2,157 33,151 9,219 -10,397 -12,119 52,12 19,214 -26,158 -75,59 -52,192 -11,-27 1,-90 68,-70 28,83 -8,170 -28,249 -50,208 21,63 5,245l-1 490c5,70 -39,148 -53,203 -54,216 67,137 -139,311 -99,84 -88,187 -128,277l-187 146c24,-268 101,-62 -27,-300 -28,48 -4,19 -55,45 44,-16 -71,-81 79,-2 24,13 36,24 44,50 36,105 -33,120 -31,199 1,58 21,-24 5,58 -1,3 -3,12 -4,14l-14 22c-35,35 -40,32 -34,3 78,52 92,46 -64,279l-108 76c-54,-57 -7,-29 -16,-115 -5,-50 -70,-66 -6,-235 161,-18 -36,23 -38,24l7 -382c139,32 57,37 75,-6 -83,-7 -45,81 -78,-85l87 -7c0,0 0,6 -2,7 -43,-75 -10,-90 -14,-99 -3,-6 61,-11 -75,-3 63,-766 -1,-2914 10,-3979 2,-206 47,-95 -41,-256 -19,877 11,1774 2,2652l-7 5293c1,395 -48,2465 12,2652 52,24 -55,9 83,21 105,9 215,-28 307,-40 161,-21 282,-21 441,-47 29,-221 16,-5283 15,-5868 -1,-689 -89,-635 444,-1250 95,-110 201,-217 274,-317 171,-238 370,-410 588,-596 828,-705 1782,-1330 3011,-1720 1216,-386 2835,-569 4188,-256 -57,-304 -13,-725 -62,-1044 -54,-347 -82,-655 -148,-975 -348,-1697 -1137,-3247 -2259,-4452 -480,-516 -1187,-1161 -1808,-1535l-704 -420c-392,-232 -1079,-499 -1565,-654 -2444,-778 -5195,-459 -7330,773 -490,283 -632,384 -1087,714 -71,52 -15,6 -83,65 -56,48 -103,83 -164,133 -447,368 -748,665 -1128,1090 -87,97 -175,210 -250,309 -677,892 -973,1336 -1434,2501 -130,328 -466,1430 -470,1790z"/>
    <path class="fil3" d="M22275 30978c-77,212 -217,403 -384,552 -125,111 -431,291 -602,318 -256,40 -990,67 -1262,45 -73,-6 -128,-1 -196,-1l-3552 -2 42 224c-46,163 252,965 329,1151 153,372 337,701 526,1011 1705,2796 5493,3906 8503,2370 744,-380 1278,-797 1778,-1295 1095,-1091 1779,-2703 1871,-4265 147,-1796 -550,-3502 -1649,-4770 -446,-515 -1139,-1103 -1769,-1425 -643,-329 -1673,-753 -2416,-763l-358 -16 -2 2739c28,749 -28,1943 -4,2672 21,634 -280,1195 -855,1455z"/>
    <path class="fil4" d="M9747 23551l4 1857c566,318 1823,522 2607,547 1030,34 1959,-28 2768,-420 1781,-863 1807,-3190 652,-4236 -477,-432 -1353,-837 -2048,-1118 -681,-276 -1716,-667 -1939,-1253 -186,-488 114,-918 405,-1083 895,-507 2432,-349 3353,19 158,63 415,226 572,247l0 -1760c-1601,-597 -4066,-490 -5305,380 -613,430 -1103,1082 -1062,2136 40,1029 603,1583 1205,1989 642,433 1379,760 2122,1069 600,250 1747,766 1416,1676 -438,1201 -2593,859 -3647,497 -568,-195 -927,-495 -1102,-546z"/>
    <path class="fil1" d="M20386 30353c-177,-41 -4111,-38 -4261,-4 20,160 1,328 7,492l80 877c16,114 22,311 108,395l-42 -224 3552 2c69,1 123,-5 196,1 272,22 1006,-5 1262,-45 171,-27 478,-207 602,-318 168,-149 307,-340 384,-552 201,-406 100,-1343 114,-1881 -39,84 -53,230 -90,328 -182,475 -624,869 -1128,918 -137,13 -664,23 -785,10z"/>
    <path class="fil5" d="M22389 29097c-14,538 88,1475 -114,1881 574,-260 876,-821 855,-1455 -25,-729 31,-1924 4,-2672l2 -2739 358 16 -133 -40c-176,-34 -865,-22 -970,24l-2 4986z"/>
    <path class="fil6" d="M20641 12505c248,-32 738,457 867,883 21,69 23,128 45,192 88,162 44,50 41,256 -11,1065 53,3213 -10,3979 137,-7 73,-3 75,3 4,9 -29,24 14,99 2,-1 2,-7 2,-7l-87 7c33,166 -5,79 78,85 -18,43 64,38 -75,6l-7 382c2,-1 199,-42 38,-24 -65,168 0,185 6,235 9,86 -39,58 16,115l108 -76c156,-232 142,-226 64,-279 -6,29 -1,31 34,-3l14 -22c1,-2 3,-12 4,-14 15,-81 -4,0 -5,-58 -1,-79 68,-94 31,-199 -9,-26 -21,-37 -44,-50 -150,-79 -36,-14 -79,2 51,-26 26,3 55,-45 127,238 50,31 27,300l187 -146c41,-90 29,-193 128,-277 206,-175 86,-95 139,-311 13,-54 58,-132 53,-203l1 -490c16,-182 -55,-37 -5,-245 19,-80 55,-166 28,-249 -67,-20 -79,43 -68,70 -23,-133 26,-34 52,-192 33,-201 -31,-95 -19,-214 18,-178 42,-245 10,-397 -27,-123 -3,-4 2,-157l-18 -135c-3,-25 -2,-86 -1,-94 17,-134 31,6 8,-203l29 -238c-50,16 -46,31 -31,-15 24,-74 3,29 22,-80 6,-36 6,-76 7,-112 -130,44 -3,42 -1,-205 -138,47 -37,26 -11,-58 39,-126 -2,-149 -71,-200l62 12c44,-316 -12,-343 -24,-529 -10,-160 -26,-131 -56,-236 -10,-37 -4,-17 -9,-53 -5,-39 9,-43 -13,-115 -167,60 -53,136 -106,165 27,-11 -12,134 16,-43l-48 -266c-1,-2 -5,-8 -6,-10 -1,-2 -4,-8 -4,-10l-94 -124c-47,-55 -22,-81 -102,-139 -104,-75 -7,-29 -141,-52 -41,73 -53,74 -53,181 42,-131 56,-78 68,-239 -96,-22 -59,-1 -111,-43l-118 -74 -51 114c27,-69 -10,-80 -55,-127l-209 -100c-184,-38 -358,-22 -572,-31 -54,49 -66,-71 -28,104z"/>
    <path class="fil7" d="M16222 29566c-2,139 -16,78 -33,184 -13,79 -13,132 -26,209 -26,152 -13,253 -38,389 150,-33 4084,-37 4261,4 36,-44 5,-30 146,-63 167,-39 410,-150 530,-268l274 -316c243,-331 277,-760 255,-1173l-36 -154 -69 213c-18,65 -34,105 -65,167 -485,949 -1442,799 -2349,787 -469,-6 -1002,-8 -1434,7l-1416 15z"/>
   </g>
   <circle class="fil8" cx="21592" cy="21592" r="21592"/>
  </g>
 </g>
</svg>
