<?xml version="1.0" encoding="UTF-8"?>
<!DOCTYPE svg PUBLIC "-//W3C//DTD SVG 1.1//EN" "http://www.w3.org/Graphics/SVG/1.1/DTD/svg11.dtd">
<!-- Creator: CorelDRAW X6 -->
<svg xmlns="http://www.w3.org/2000/svg" xml:space="preserve" width="333px" height="333px" version="1.1" style="shape-rendering:geometricPrecision; text-rendering:geometricPrecision; image-rendering:optimizeQuality; fill-rule:evenodd; clip-rule:evenodd"
viewBox="0 0 103967 103967"
 xmlns:xlink="http://www.w3.org/1999/xlink">
 <defs>
  <style type="text/css">
   <![CDATA[
    .fil0 {fill:#848688}
    .fil1 {fill:black}
    .fil2 {fill:white}
   ]]>
  </style>
 </defs>
 <g id="Capa_x0020_1">
  <metadata id="CorelCorpID_0Corel-Layer"/>
  <polygon class="fil0" points="0,0 103967,0 103967,103967 0,103967 "/>
  <g id="_320805312">
   <path class="fil1" d="M17865 47763c-2578,254 -4407,2337 -4145,5220 229,2526 2347,4436 5152,4159 2546,-252 4390,-2386 4121,-5227 -238,-2515 -2313,-4429 -5127,-4152zm73 2211c-2843,574 -2256,5534 835,4961 2265,-420 2219,-3553 1029,-4481 -460,-358 -1075,-640 -1863,-481z"/>
   <path class="fil2" d="M98704 56870l0 -5773c-146,-354 20,-2270 -1910,-3070 -1020,-422 -2560,-327 -3468,374 -142,110 -204,235 -342,309 0,-590 38,-4667 -21,-4887 -640,0 -1280,1 -1920,0 -565,-1 -467,-99 -466,466l0 12581c271,74 1989,21 2407,21 0,-1429 0,-2858 0,-4287 0,-762 -73,-1243 261,-1870 236,-443 671,-783 1386,-788 1736,-13 1648,1498 1648,2623 0,1441 0,2881 0,4322 510,0 2029,66 2424,-21z"/>
   <path class="fil1" d="M39432 50664l2137 459c142,-1582 2037,-1715 2780,-1133 212,166 565,675 338,1114 -186,358 -635,357 -1096,424 -1633,240 -3505,295 -4171,1969 -477,1199 32,2541 1105,3181 1326,791 3154,614 4196,-569 74,-84 100,-145 193,-230l78 1014 2222 -1c-168,-1584 -104,-3254 -104,-4873 0,-850 42,-1480 -230,-2246 -236,-663 -634,-1066 -1104,-1382 -1025,-691 -2785,-857 -4076,-411 -647,224 -1131,585 -1501,982 -316,339 -721,1046 -767,1701zm5323 2251c-458,42 -2030,261 -2379,399 -909,360 -868,1279 -402,1743 519,516 2205,460 2653,-874 136,-404 128,-820 128,-1269z"/>
   <path class="fil2" d="M54571 45697l0 11194 2389 0 0 -17606c0,-655 216,-910 -671,-1304 -581,-259 -1024,-209 -1456,221 -393,392 -483,692 -589,1376 -175,1142 -348,2274 -523,3411 -70,455 -266,1339 -157,1755 119,457 521,867 1006,953z"/>
   <path class="fil2" d="M62818 57133c803,0 1739,-272 2257,-892 65,-77 115,-177 193,-251l58 900 2315 1 -96 -1388 10 -7497c-425,0 -2118,-22 -2408,15 1,1416 1,2826 1,4237 0,647 68,1381 -230,1893 -317,544 -746,764 -1512,764 -1021,0 -1553,-761 -1553,-1760l0 -5150 -2407 1c0,1091 -58,5501 37,6206 228,1699 1483,2919 3336,2919z"/>
   <path class="fil2" d="M72445 49068l0 -1060 -2338 1 0 8873 2407 11c0,-1429 0,-2858 0,-4288 0,-677 -48,-1344 265,-1874 262,-443 652,-769 1356,-783 733,-14 1154,233 1426,715 320,567 248,1205 248,1908 0,1433 0,2867 0,4300 172,47 2244,47 2416,0 0,-1341 0,-2683 0,-4024 0,-1255 103,-2544 -455,-3565 -1075,-1963 -4076,-1933 -5194,-376l-131 162z"/>
   <path class="fil1" d="M49517 56892l2407 0c0,-4047 0,-8093 0,-12155 0,-279 -50,-504 92,-659 141,-154 208,-260 287,-472 187,-504 122,-818 113,-1356 -17,-1007 -48,-2000 -69,-3000 -4,-165 9,-616 -36,-742 -70,-199 -349,-265 -520,-139 -173,126 -129,422 -133,642l-70 2998c-4,246 -76,493 -339,326 -125,-100 -90,-886 -94,-1082 -9,-362 -14,-2640 -119,-2811 -76,-124 -241,-195 -421,-112 -281,130 -202,648 -209,957 -8,401 -17,803 -27,1204 -9,370 -18,763 -28,1142 -11,386 86,882 -378,703 -116,-400 -87,-2271 -107,-2854 -13,-370 121,-1135 -304,-1184 -513,-59 -390,713 -399,1093 -23,973 -66,1967 -67,2932 -1,526 -33,869 148,1330 71,180 254,385 271,478l4 12763z"/>
   <path class="fil1" d="M33066 54166l-2095 -702c-207,259 -187,722 -875,1166 -1228,793 -3435,186 -3449,-2129 -7,-1289 623,-2220 1681,-2470 1410,-332 2159,417 2531,1428l2149 -716c-64,-433 -430,-1100 -649,-1394 -970,-1305 -2787,-1853 -4506,-1517 -4805,941 -4846,8244 35,9230 1255,254 2478,32 3410,-540 713,-437 1531,-1261 1766,-2358z"/>
   <path class="fil2" d="M79985 52260l0 380c0,1362 719,2585 1358,3214 1531,1506 4304,1810 6038,439 527,-417 1254,-1180 1431,-2139l-2124 -699c-493,2133 -4297,2209 -4297,-1091 0,-2563 2762,-2808 3544,-1965 162,174 251,245 396,467 114,175 199,364 271,592l2158 -716c-420,-1830 -2213,-3002 -3996,-3002 -881,0 -1351,74 -2140,414 -231,99 -532,274 -705,399 -1079,778 -1934,2052 -1934,3708z"/>
   <path class="fil1" d="M5522 50569c0,2952 3258,2673 4209,3193 601,328 711,1551 -845,1551 -634,0 -1105,-274 -1374,-782 -90,-170 -99,-369 -178,-552 -233,16 -1901,372 -2038,454 11,384 233,896 410,1179 1518,2424 6735,2084 6735,-1420 0,-1511 -1182,-2351 -2546,-2662 -596,-136 -1691,-259 -2001,-624 -233,-275 -166,-750 40,-979 413,-458 1431,-481 1934,-28 398,358 322,561 468,847l1985 -434c32,-630 -543,-1450 -1051,-1850 -718,-564 -1526,-723 -2555,-723 -1628,0 -3192,1252 -3192,2829z"/>
   <polygon class="fil1" points="34826,56892 37114,56892 37242,56884 37241,48017 37112,48005 34826,48007 "/>
   <path class="fil1" d="M70392 63025c0,1219 867,2060 1950,2060 602,0 1077,-268 1368,-554 1207,-1185 480,-3430 -1368,-3430 -1053,0 -1950,868 -1950,1924zm1624 -1244c-633,162 -1173,823 -957,1666 158,620 825,1198 1661,956 596,-173 1103,-840 918,-1640 -146,-632 -803,-1192 -1622,-982z"/>
   <path class="fil1" d="M94701 63060c0,647 224,1097 572,1430 1433,1372 3345,202 3345,-1396 0,-1105 -857,-1993 -1984,-1993 -1051,0 -1932,902 -1932,1958zm1635 -1283c-374,103 -608,293 -780,550 -193,289 -285,676 -195,1073 142,631 796,1226 1629,1015 607,-154 1159,-823 964,-1643 -148,-625 -798,-1222 -1619,-996z"/>
   <path class="fil1" d="M54606 66165l656 0 0 -1350c205,127 261,248 620,283 294,28 564,-41 753,-181 362,-267 518,-762 516,-1340 -3,-879 -396,-1571 -1268,-1483 -358,36 -432,143 -618,308 -57,-85 -43,-112 -47,-240 -130,-36 -461,-17 -613,-17l0 4020zm656 -3105l0 1070c0,517 1233,856 1233,-518l0 -69c0,-1273 -1233,-1000 -1233,-483z"/>
   <path class="fil1" d="M34541 45083c0,1984 2967,1949 2967,34 0,-895 -616,-1510 -1570,-1510 -748,0 -1397,696 -1397,1476z"/>
   <path class="fil1" d="M67329 65026l604 0 1 -1753 1238 1746 746 1c-112,-252 -1029,-1413 -1137,-1651 265,-157 867,-169 867,-1104 0,-620 -421,-1113 -1035,-1113l-1286 0 0 3873zm603 -2252c220,22 534,14 743,-34 263,-60 377,-157 367,-475 -19,-609 -546,-528 -1096,-496l-14 1005z"/>
   <path class="fil1" d="M58492 62126c-1680,387 -1275,3374 644,2945 1605,-359 1280,-3388 -644,-2945zm212 503c-478,74 -621,543 -594,1088 25,498 275,950 829,847 814,-151 767,-2091 -234,-1935z"/>
   <path class="fil1" d="M75093 65026l604 0 1 -2408 1056 1792c94,165 286,450 349,615l492 2 0 -3873 -613 16 1 2352 -373 -589c-110,-193 -229,-388 -342,-589 -115,-203 -229,-386 -343,-588 -108,-189 -266,-422 -334,-600l-496 -2 0 3873z"/>
   <polygon class="fil1" points="85988,65026 88369,65026 88369,64423 86614,64422 86602,63392 88369,63387 88369,62784 86601,62777 86603,61770 88369,61765 88369,61153 85989,61153 "/>
   <path class="fil1" d="M81979 64188c-165,-68 -349,-240 -520,-323 -376,463 -851,762 -1526,541 -1217,-399 -1238,-2160 -53,-2606 475,-179 899,-77 1287,198 161,115 144,154 284,306 161,-39 356,-236 530,-303 -219,-593 -1312,-1139 -2270,-819 -1787,596 -1789,3218 1,3825 930,315 2034,-210 2267,-819z"/>
   <path class="fil1" d="M82762 65026l605 -13 -1 -1626 1164 0 0 1630 613 8 0 -3873 -613 8 0 1622 -1166 0 2 -1609c-201,-43 -378,-24 -604,-21l0 3873z"/>
   <path class="fil1" d="M91803 61645l13 122 815 -1 0 3261 613 -6c0,-532 -67,-2935 21,-3254l806 -3 0 -599 -2269 -11 0 492z"/>
   <path class="fil1" d="M64371 61645l12 122 816 -1 0 3261 613 -6c0,-532 -67,-2935 21,-3254l806 -3 0 -599 -2269 -11 0 492z"/>
   <path class="fil1" d="M89008 61766l811 0c52,301 18,2753 18,3261l604 0 0 -3174c0,-177 450,-43 837,-99l0 -589 -2269 -11 0 613z"/>
   <path class="fil1" d="M61220 62376c-71,-296 192,-230 -654,-230l1 2907 655 0c45,-467 10,-1127 8,-1613 -1,-340 -29,-448 191,-604 198,-141 422,-114 665,-93 15,-193 57,-453 -15,-627 -267,-59 -507,-26 -706,150 -41,37 -35,40 -69,69l-31 25c-62,40 6,21 -45,16z"/>
  </g>
 </g>
</svg>
