<?xml version="1.0" encoding="UTF-8"?>
<!DOCTYPE svg PUBLIC "-//W3C//DTD SVG 1.1//EN" "http://www.w3.org/Graphics/SVG/1.1/DTD/svg11.dtd">
<!-- Creator: CorelDRAW X6 -->
<svg xmlns="http://www.w3.org/2000/svg" xml:space="preserve" width="300px" height="300px" version="1.1" style="shape-rendering:geometricPrecision; text-rendering:geometricPrecision; image-rendering:optimizeQuality; fill-rule:evenodd; clip-rule:evenodd"
viewBox="0 0 41604 41604"
 xmlns:xlink="http://www.w3.org/1999/xlink">
 <defs>
  <style type="text/css">
   <![CDATA[
    .fil1 {fill:#808184}
    .fil0 {fill:#E90006}
   ]]>
  </style>
 </defs>
 <g id="Capa_x0020_1">
  <metadata id="CorelCorpID_0Corel-Layer"/>
  <g id="_299377752">
   <path class="fil0" d="M20802 0c4951,0 9497,1731 13069,4619l-6443 6443c-1888,-1287 -4169,-2039 -6626,-2039 -6506,0 -11779,5274 -11779,11779 0,6506 5274,11779 11779,11779 2457,0 4738,-753 6626,-2039l6443 6443c-3572,2888 -8118,4619 -13069,4619 -11489,0 -20802,-9313 -20802,-20802 0,-11489 9313,-20802 20802,-20802z"/>
   <path class="fil1" d="M36806 7514c2995,3604 4797,8235 4797,13288 0,5053 -1802,9684 -4797,13288l-6428 -6428c1386,-1932 2203,-4300 2203,-6860 0,-2559 -817,-4928 -2203,-6860l6428 -6428z"/>
  </g>
 </g>
</svg>
