<?xml version="1.0" encoding="UTF-8"?>
<!DOCTYPE svg PUBLIC "-//W3C//DTD SVG 1.1//EN" "http://www.w3.org/Graphics/SVG/1.1/DTD/svg11.dtd">
<!-- Creator: CorelDRAW X6 -->
<svg xmlns="http://www.w3.org/2000/svg" xml:space="preserve" width="364px" height="364px" version="1.1" style="shape-rendering:geometricPrecision; text-rendering:geometricPrecision; image-rendering:optimizeQuality; fill-rule:evenodd; clip-rule:evenodd"
viewBox="0 0 602465 602467"
 xmlns:xlink="http://www.w3.org/1999/xlink">
 <defs>
  <style type="text/css">
   <![CDATA[
    .fil1 {fill:none}
    .fil0 {fill:#211F20}
   ]]>
  </style>
 </defs>
 <g id="Capa_x0020_1">
  <metadata id="CorelCorpID_0Corel-Layer"/>
  <g id="_522450312">
   <path class="fil0" d="M138997 200547l159578 96159 41809 -23489 -41299 -24866 79693 -46018 40738 24548 43814 -25298 -159584 -96159 -164749 95123zm83879 2071l35018 20915 79428 -46182 -34592 -20841 -79854 46108z"/>
   <path class="fil0" d="M129907 335069c16444,5843 45523,23754 61395,33146 21238,12565 42186,23811 61153,35686l-844 21339c-22119,-11762 -42885,-25027 -62612,-35368 -27805,-14586 -12135,-26004 -59171,-42629l-18 58761c28413,8239 128750,76604 164212,90969l-401 -118403c-21583,-7666 -90908,-53832 -122315,-68166l219 -22705 62188 34381c34479,19885 895,18207 60514,43831l-569 -54952 -164036 -98844 285 122954z"/>
   <path class="fil0" d="M308387 308921l733 187659 40361 -21241 979 -47915c24554,-12823 100222,-64166 122358,-68570l-246 -144727 -164184 94795zm41912 25163l0 43481 79949 -46162 858 -43976 -80807 46657z"/>
  </g>
  <path class="fil1" d="M0 0l602465 0 0 301233c0,166365 -134866,301231 -301231,301231l-301233 0 0 -602465zm602465 301233l0 301231 -301231 0c-166365,0 -301231,-134866 -301231,-301231 0,-166365 134866,-301231 301231,-301231 166365,0 301231,134866 301231,301231z"/>
 </g>
</svg>
