<?xml version="1.0" encoding="UTF-8"?>
<!DOCTYPE svg PUBLIC "-//W3C//DTD SVG 1.1//EN" "http://www.w3.org/Graphics/SVG/1.1/DTD/svg11.dtd">
<!-- Creator: CorelDRAW X6 -->
<svg xmlns="http://www.w3.org/2000/svg" xml:space="preserve" width="364px" height="364px" version="1.1" style="shape-rendering:geometricPrecision; text-rendering:geometricPrecision; image-rendering:optimizeQuality; fill-rule:evenodd; clip-rule:evenodd"
viewBox="0 0 649615 649615"
 xmlns:xlink="http://www.w3.org/1999/xlink">
 <defs>
  <style type="text/css">
   <![CDATA[
    .fil4 {fill:none}
    .fil1 {fill:#223B98}
    .fil3 {fill:#262F7E}
    .fil2 {fill:#3855A5}
    .fil0 {fill:white}
   ]]>
  </style>
 </defs>
 <g id="Capa_x0020_1">
  <metadata id="CorelCorpID_0Corel-Layer"/>
  <g id="_519028000">
   <path class="fil0" d="M235414 145487c-7076,6290 -5672,2590 -10655,12004l-89120 153091c-11269,18159 2417,31473 14473,51326l44297 76664c3190,5316 6024,10428 9271,16186l18100 30761c7573,12716 5792,21172 26191,20970 6448,-63 187860,2257 195321,-1928 4530,-2541 88269,-150603 98788,-167529 10580,-17025 1587,-22904 -14128,-49396l-76809 -133363c-7558,-13051 -9395,-11157 -24632,-11016 -46400,436 -140187,-1987 -182830,-46 -9180,417 -5162,-483 -8266,2276z"/>
   <path class="fil1" d="M437562 490763c-17109,3491 -167841,1395 -198100,1395 7689,-18329 22843,-41037 33271,-58829 5609,-9572 11736,-20251 17059,-29661 5851,-10341 12638,-19844 16789,-29004 -9802,-5695 -10792,-5464 -17923,-12630 4461,-8363 5691,-6051 10453,-12876 8418,4478 8721,7261 20017,9092 388,-11494 9905,-20198 13961,-28030 -6077,-5719 -56486,-17301 -36288,-53402 4646,-8308 17440,-16056 31956,-17175 18772,-1445 26619,6526 39050,10733 9785,-21005 66463,-105315 65058,-119787l-195319 -15c-6431,7132 -98786,167834 -99038,171467 -367,5287 40723,73608 47283,85326l49590 86824c44307,2708 125990,-194 178374,360 13253,141 19111,1776 23808,-3789z"/>
   <path class="fil2" d="M364299 322455c4779,6673 10228,11795 9216,24632 -885,11250 -6051,17010 -12120,22002 -15894,13079 -34322,10653 -54815,5575 -4151,9159 -10938,18662 -16789,29004 -5322,9410 -11450,20089 -17059,29661 -10428,17792 -25582,40500 -33271,58829 30260,0 180991,2097 198100,-1395 5407,-4033 42004,-69660 48680,-81830 7604,-13864 15864,-27253 24250,-41530 7322,-12465 18624,-30021 24924,-43490 -13043,-3668 -48481,-3003 -64645,-1321l88 54206 -18053 -533 402 -52455 -10034 -1511 -9044 23934 -11009 -162 -8510 -22261 -9560 -1399 265 54318 -17830 135 183 -116089c-3150,5053 -2952,5891 -2904,16296l160 44737 -20628 647z"/>
   <path class="fil3" d="M367807 270377c1625,4741 1426,5242 -3190,10856 -3190,3879 -4739,4821 -7617,4486 -1445,7065 -2219,7710 -5992,13654 -1268,1997 -3199,4869 -4142,6258 -276,407 -681,982 -940,1359l-3127 4526c8578,2923 15211,7027 21501,10940l20628 -647 -160 -44737c-48,-10405 -247,-11243 2904,-16296 28193,1039 21366,-3329 31440,29935 2531,8359 6188,24522 10506,32063l18517 -61301 22820 -13 -181 61132c16163,-1681 51602,-2347 64645,1321 -1730,-10095 -41168,-73836 -48989,-87528l-43511 -75125c-3789,-6766 -2743,-6703 -10051,-10670 1405,14471 -55273,98781 -65058,119787z"/>
   <path class="fil0" d="M405052 322411l-1138 -34996 10698 36395 8510 22261 11009 162 9044 -23934c3506,-12204 8930,-25784 12088,-37508l-2054 39019 -402 52455 18053 533 -88 -54206 181 -61132 -22820 13 -18517 61301c-4317,-7541 -7975,-23705 -10506,-32063 -10074,-33264 -3247,-28896 -31440,-29935l-183 116089 17830 -135 -265 -54318z"/>
   <path class="fil0" d="M182525 376849l20925 -133 8715 -31199 37862 249 9648 30692 21473 145 -37169 -114945c-24351,-299 -23702,-3378 -28498,12360 -8460,27752 -28441,83347 -32957,102831z"/>
   <path class="fil0" d="M333089 330220c10891,2689 24779,7124 18384,22124 -4271,10015 -24280,11311 -32346,5906 -11296,-1831 -11599,-4614 -20017,-9092 -4762,6825 -5992,4513 -10453,12876 7130,7166 8121,6934 17923,12630 20493,5078 38922,7503 54815,-5575 6068,-4992 11235,-10752 12120,-22002 1011,-12836 -4437,-17959 -9216,-24632 -6290,-3913 -12923,-8017 -21501,-10940 -11277,-5820 -35502,-10084 -27704,-26564 7120,-15040 33254,-6631 41905,767 2878,335 4427,-607 7617,-4486 4617,-5613 4815,-6115 3190,-10856 -12432,-4208 -20278,-12179 -39050,-10733 -14516,1119 -27310,8867 -31956,17175 -20198,36100 30211,47683 36288,53402z"/>
   <path class="fil1" d="M342799 311515l3127 -4526c259,-377 664,-952 940,-1359 944,-1389 2874,-4260 4142,-6258 3774,-5944 4547,-6589 5992,-13654 -8652,-7398 -34786,-15807 -41905,-767 -7798,16479 16427,20744 27704,26564z"/>
   <path class="fil2" d="M319128 358250c8066,5405 28075,4109 32346,-5906 6395,-15000 -7493,-19436 -18384,-22124 -4056,7832 -13574,16536 -13961,28030z"/>
   <polygon class="fil1" points="217192,328930 245235,329434 232167,279070 "/>
   <path class="fil3" d="M443175 322299l10034 1511 2054 -39019c-3158,11724 -8582,25304 -12088,37508z"/>
   <polygon class="fil3" points="405052,322411 414612,323810 403914,287414 "/>
  </g>
  <path class="fil4" d="M0 0l649615 0 0 324809c0,179385 -145421,324806 -324806,324806l-324809 0 0 -649615zm649615 324809l0 324806 -324806 0c-179385,0 -324806,-145421 -324806,-324806 0,-179385 145421,-324806 324806,-324806 179385,0 324806,145421 324806,324806z"/>
 </g>
</svg>
