<?xml version="1.0" encoding="UTF-8"?>
<!DOCTYPE svg PUBLIC "-//W3C//DTD SVG 1.1//EN" "http://www.w3.org/Graphics/SVG/1.1/DTD/svg11.dtd">
<!-- Creator: CorelDRAW X6 -->
<svg xmlns="http://www.w3.org/2000/svg" xml:space="preserve" width="364px" height="364px" version="1.1" style="shape-rendering:geometricPrecision; text-rendering:geometricPrecision; image-rendering:optimizeQuality; fill-rule:evenodd; clip-rule:evenodd"
viewBox="0 0 91483 91483"
 xmlns:xlink="http://www.w3.org/1999/xlink">
 <defs>
  <style type="text/css">
   <![CDATA[
    .fil0 {fill:none}
    .fil2 {fill:black}
    .fil9 {fill:#6B643C}
    .fil5 {fill:#8AD8F6}
    .fil7 {fill:#8AE897}
    .fil3 {fill:#B4EEBA}
    .fil1 {fill:#B5E5F9}
    .fil4 {fill:#FDEE8E}
    .fil6 {fill:#FEE85D}
    .fil8 {fill:#FEFEFE}
   ]]>
  </style>
 </defs>
 <g id="Capa_x0020_1">
  <metadata id="CorelCorpID_0Corel-Layer"/>
  <path class="fil0" d="M0 0l91483 0 0 45742c0,25262 -20479,45741 -45741,45741l-45742 0 0 -91483zm91483 45742l0 45741 -45741 0c-25262,0 -45741,-20479 -45741,-45741 0,-25262 20479,-45741 45741,-45741 25262,0 45741,20479 45741,45741z"/>
  <g id="_247032216">
   <path class="fil1" d="M24730 20454l0 1918c6100,203 12551,11 18691,11 5844,0 10025,-1109 10016,4004l1 9350c1,1603 -445,2590 -1359,3213 -1238,843 -2551,617 -4162,617 -3481,0 -22767,-99 -23106,71 -150,572 -80,1257 -80,1870l963 6 117 14922c0,5066 0,10132 0,15198l1522 0 70 887c380,30 673,38 998,39 621,2 634,-1 873,-136l-1793 0 -10 -1747 1785 0 12 1019c892,-192 25808,-62 27995,-62 1518,0 8452,259 9334,-148l-23 -44718 -9461 -1 0 -9487 -31405 24 -62 3117 -913 33z"/>
   <path class="fil2" d="M24810 39638c339,-171 19625,-71 23106,-71 1611,0 2925,226 4162,-617 914,-623 1360,-1610 1359,-3213l-1 -9350c10,-5114 -4172,-4004 -10016,-4004 -6139,0 -12590,192 -18691,-11 -2305,-39 -4633,-471 -5839,1609 -593,1023 -431,1742 -431,3236l0 7453c0,1989 -210,4131 2596,4857 967,250 2577,112 3754,112z"/>
   <path class="fil2" d="M37979 44633l-3307 3275c222,613 572,1274 853,1878 481,1038 653,837 159,1989 -689,1609 -625,742 -3446,1996l-18 4647c549,272 1383,523 1981,734 1227,432 988,74 1474,1245 480,1158 373,915 -131,2006 -271,588 -753,1378 -878,1973l3279 3228c658,-244 1302,-605 1898,-900 1029,-509 875,-609 1971,-142 1163,495 821,200 1271,1450 231,640 504,1350 704,2014l4714 8c214,-683 465,-1344 706,-2010 439,-1217 82,-976 1267,-1454 1150,-465 861,-416 1954,138 487,247 1499,760 2017,869l3157 -3209c-251,-1675 -1757,-2174 -1020,-3873 641,-1478 201,-797 3488,-2057l-2 -4675c-2879,-1019 -2916,-691 -3460,-1998 -708,-1703 83,-1125 1001,-3843l-3279 -3313c-2460,1005 -2323,1674 -3801,1053 -1883,-792 -781,-1039 -2081,-3479l-4613 -1c-1286,2676 -312,2768 -2081,3486 -1679,680 -1531,-354 -3777,-1032z"/>
   <path class="fil2" d="M24730 20454l913 -33 62 -3117 31405 -24 0 9487 9461 1 23 44718 -2 2799 -40892 13 -7 -32785 -963 -6 -828 26 0 34539 44479 0 0 -49211c5,-1810 3,-1357 -976,-2336l-8162 -8162c-639,-639 -691,-816 -1097,-858l-1357 0 -32886 0 0 4968 828 -20z"/>
   <path class="fil3" d="M37125 63255c190,123 236,101 523,-33l1782 -842c1213,-600 1143,-875 2380,-309 482,221 2151,868 2441,1104 250,204 1029,2030 1135,2416l1520 0c90,-301 890,-2193 1062,-2363 195,-192 2039,-945 2427,-1115 1407,-620 989,-420 2380,226 585,272 1958,1001 2500,1061 -1057,-2232 -1212,-1492 -220,-3846 367,-870 280,-1331 1202,-1639 666,-223 1484,-449 2039,-752l0 -2134c-663,-270 -1427,-531 -2159,-781 -717,-245 -599,-376 -1166,-1792 -304,-760 -792,-1355 -459,-2069 294,-632 763,-1484 952,-2115l-1508 -1501c-688,246 -1337,589 -2000,931 -803,414 -1842,-314 -3125,-821 -597,-236 -594,-130 -815,-721 -263,-705 -448,-1636 -842,-2211l-2061 0c-307,494 -576,1488 -806,2134 -204,573 -120,502 -683,736 -1164,485 -2501,1249 -3217,921 -697,-319 -1369,-773 -2073,-964 -389,425 -1301,1160 -1526,1651 407,582 669,1281 974,1945 339,737 -409,1938 -872,3101 -513,1288 -1018,507 -2913,1569l9 2143c2928,1254 2347,251 3197,2271 1283,3051 586,1610 -79,3797z"/>
   <path class="fil4" d="M20249 34562c901,845 2696,560 4029,560l2 -8573c2497,-146 5936,-557 6456,2112 219,1124 -290,1630 -568,2342 1046,1771 728,3101 -750,4092l3096 28c11,-938 4,-1879 4,-2818 0,-902 -163,-2196 110,-2934 93,-1498 1529,-2789 3109,-2834 1824,-52 3033,1229 3320,2821 387,682 51,4592 188,5766l3996 0 -2 -6815 -2658 0 2 -1777 7095 0 11 1777 -2633 0 -36 6815c1404,0 5644,308 6456,-423 242,-720 67,-7975 62,-9330 10,-1620 -2706,-1212 -4096,-1212l-21530 0c-1160,0 -4352,-259 -5088,335 -973,786 -577,3298 -577,4736 0,1778 -7,3557 1,5334z"/>
   <path class="fil5" d="M66595 71486c-882,407 -7815,148 -9334,148 -2187,0 -27103,-131 -27995,62l7 728c-239,135 -252,138 -873,136 -325,-1 -618,-9 -998,-39l-70 -887 -1522 0c0,-5066 0,-10132 0,-15198l-117 -14922 7 32785 40892 -13 2 -2799z"/>
   <path class="fil2" d="M44999 50615c-7471,1719 -4779,12541 2394,10975 2626,-573 5015,-3354 4237,-6746 -604,-2634 -3282,-5001 -6631,-4230z"/>
   <path class="fil6" d="M45022 35122l-63 353 -1686 -18 -31 -335 -3996 0c-137,-1174 199,-5084 -188,-5766l2 6117 -1601 4c-193,-77 -197,176 -197,-355l-2877 0 -74 420 -1773 -48 -24 -372 -3096 -28c-1439,531 -3302,325 -4925,325l-215 -30 -1 -268c-1334,0 -3128,286 -4029,-560 -6,2705 -174,3236 2706,3231l23541 0c1633,0 4476,478 5038,-927 272,-681 223,-11197 5,-11497 5,1355 180,8611 -62,9330 -812,731 -5052,423 -6456,423z"/>
   <path class="fil2" d="M24278 35122l1 268 215 30c1623,0 3486,206 4925,-325 1478,-990 1795,-2320 750,-4092 278,-712 787,-1218 568,-2342 -520,-2669 -3959,-2258 -6456,-2112l-2 8573z"/>
   <path class="fil2" d="M32629 29369l-18 6075 1634 0 63 -1724c650,-126 2458,-180 3052,46l99 1711 1601 -4 -2 -6117c-287,-1592 -1496,-2873 -3320,-2821 -1581,45 -3016,1336 -3109,2834z"/>
   <path class="fil1" d="M45229 52387c-5059,1350 -2973,8618 1828,7457 1806,-437 3386,-2336 2823,-4668 -426,-1764 -2289,-3420 -4652,-2789z"/>
   <path class="fil7" d="M37125 63255l-314 628 1508 1553c2931,-968 1563,-1620 4099,-546 2209,935 1447,112 2640,3360l2178 0c1252,-3176 283,-2371 2548,-3321 623,-261 1379,-803 2055,-482 607,288 1518,791 2110,976l1553 -1504 -227 -520c-542,-60 -1915,-790 -2500,-1061 -1390,-645 -973,-845 -2380,-226 -388,170 -2232,923 -2427,1115 -172,170 -972,2062 -1062,2363l-1520 0c-106,-386 -885,-2212 -1135,-2416 -290,-237 -1959,-884 -2441,-1104 -1238,-566 -1167,-290 -2380,309l-1782 842c-287,134 -333,156 -523,33z"/>
   <polygon class="fil2" points="43242,35122 43273,35457 44959,35474 45022,35122 45057,28306 47691,28306 47679,26529 40584,26529 40581,28306 43240,28306 "/>
   <polygon class="fil4" points="58885,24986 65260,24981 58933,18628 "/>
   <path class="fil4" d="M34353 31928l2964 58c0,-1589 319,-3659 -1469,-3669 -1834,-11 -1495,2120 -1495,3611z"/>
   <path class="fil4" d="M26054 30056c1079,115 2935,336 2946,-829 12,-1244 -1838,-979 -2925,-901l-21 1730z"/>
   <path class="fil4" d="M26053 33611c977,109 2908,351 2950,-840 44,-1241 -1901,-959 -2922,-891l-28 1731z"/>
   <polygon class="fil4" points="34386,35122 37263,35122 37267,33790 34342,33790 "/>
   <polygon class="fil8" points="63033,33842 63054,34296 64799,34291 64821,32533 64359,32506 63033,32511 "/>
   <polygon class="fil8" points="63033,30293 63060,30742 64794,30737 64822,28978 64359,28951 63034,28955 "/>
   <path class="fil8" d="M27487 68896l1682 13c180,-507 135,-1248 41,-1790l-1703 6 -20 1771z"/>
   <polygon class="fil8" points="29274,72423 29266,71695 29255,70676 27470,70676 27480,72423 "/>
   <path class="fil9" d="M32515 35122l24 372 1773 48 74 -420 -45 -1331 2925 0 -4 1331c0,531 4,278 197,355l-99 -1711c-594,-226 -2402,-172 -3052,-46l-63 1724 -1634 0 18 -6075c-274,738 -110,2032 -110,2934 0,939 7,1880 -4,2818z"/>
  </g>
 </g>
</svg>
