<?xml version="1.0" encoding="UTF-8"?>
<!DOCTYPE svg PUBLIC "-//W3C//DTD SVG 1.1//EN" "http://www.w3.org/Graphics/SVG/1.1/DTD/svg11.dtd">
<!-- Creator: CorelDRAW X6 -->
<svg xmlns="http://www.w3.org/2000/svg" xml:space="preserve" width="364px" height="364px" version="1.1" style="shape-rendering:geometricPrecision; text-rendering:geometricPrecision; image-rendering:optimizeQuality; fill-rule:evenodd; clip-rule:evenodd"
viewBox="0 0 91642 91642"
 xmlns:xlink="http://www.w3.org/1999/xlink">
 <defs>
  <style type="text/css">
   <![CDATA[
    .fil2 {fill:none}
    .fil0 {fill:#0D5DAC}
    .fil1 {fill:#0D5DAC;fill-rule:nonzero}
   ]]>
  </style>
 </defs>
 <g id="Capa_x0020_1">
  <metadata id="CorelCorpID_0Corel-Layer"/>
  <g id="_689817408">
   <path class="fil0" d="M63598 24689c2009,161 3392,-324 4050,3022 891,4532 -1033,12542 2813,16907 746,847 1386,923 167,2077 -354,335 -511,587 -767,980 -3715,5691 -398,15646 -3262,18476 -699,691 -1892,535 -3001,623l0 3468c3017,203 4581,-242 5726,-3912 1603,-5140 -363,-13899 2296,-17390 707,-927 1286,-1191 2889,-1202l0 -4011c-1638,-12 -2143,-241 -2883,-1209 -2864,-3746 -411,-13359 -2638,-18312 -1098,-2442 -2099,-3272 -5390,-3009l0 3494z"/>
   <path class="fil0" d="M24716 70172l2688 104 3 -3538c-1490,0 -2313,156 -3141,-819 -1620,-1907 -1092,-7515 -1146,-10179 -211,-10438 -5273,-8905 -2563,-11033 110,-413 931,-1441 1282,-2209 2252,-4932 621,-10857 1576,-15121 542,-2420 1421,-2669 3971,-2669l8 -3534c-3534,0 -4087,499 -5361,3094 -2226,4535 360,13857 -2624,18345 -853,1283 -1386,730 -2838,1249l0 3741c1360,486 1927,-10 2777,1153 2709,3708 897,11732 2211,17015 747,3004 1633,3346 3158,4403z"/>
   <path class="fil1" d="M62182 51873l0 -2816 -8644 0c0,1548 -329,2700 -988,3458 -626,725 -2091,1087 -4396,1087l-4841 0c-2074,0 -3474,-387 -4199,-1161 -724,-774 -1087,-1901 -1087,-3384l0 -6520c0,-1482 363,-2610 1087,-3384 724,-774 2124,-1161 4199,-1161l4841 0c2305,0 3770,362 4396,1087 658,757 988,1910 988,3458l8644 0 0 -2816c0,-2667 -708,-4709 -2124,-6125 -1416,-1416 -4050,-2124 -7903,-2124l-12645 0c-1910,0 -3515,173 -4816,518 -1301,346 -2346,856 -3137,1531 -790,675 -1358,1531 -1704,2569 -346,1037 -519,2247 -519,3630l0 12151c0,1383 173,2593 519,3631 346,1037 914,1893 1704,2569 790,675 1836,1185 3137,1531 1301,346 2906,519 4816,519l12645 0c3853,0 6487,-708 7903,-2124 1416,-1416 2124,-3458 2124,-6125z"/>
  </g>
  <path class="fil2" d="M0 0l91642 0 0 45821c0,25306 -20515,45821 -45821,45821l-45821 0 0 -91642zm91642 45821l0 45821 -45821 0c-25306,0 -45821,-20515 -45821,-45821 0,-25306 20515,-45821 45821,-45821 25306,0 45821,20515 45821,45821z"/>
 </g>
</svg>
