<?xml version="1.0" encoding="UTF-8"?>
<!DOCTYPE svg PUBLIC "-//W3C//DTD SVG 1.1//EN" "http://www.w3.org/Graphics/SVG/1.1/DTD/svg11.dtd">
<!-- Creator: CorelDRAW X6 -->
<svg xmlns="http://www.w3.org/2000/svg" xml:space="preserve" width="364px" height="364px" version="1.1" style="shape-rendering:geometricPrecision; text-rendering:geometricPrecision; image-rendering:optimizeQuality; fill-rule:evenodd; clip-rule:evenodd"
viewBox="0 0 60939 60939"
 xmlns:xlink="http://www.w3.org/1999/xlink">
 <defs>
  <style type="text/css">
   <![CDATA[
    .fil1 {fill:none}
    .fil0 {fill:black}
   ]]>
  </style>
 </defs>
 <g id="Capa_x0020_1">
  <metadata id="CorelCorpID_0Corel-Layer"/>
  <path class="fil0" d="M28540 10056c-145,121 -364,217 -523,310 -189,110 -352,217 -552,323 -377,199 -737,418 -1120,621 -153,122 -612,364 -822,481 -285,159 -561,318 -844,437 -43,68 -582,340 -713,420 -217,133 -524,350 -746,376 -122,156 -187,176 -368,266l-1199 662c-353,153 -809,449 -1144,646 -181,106 -368,206 -563,313 -210,116 -363,241 -577,290 -102,143 -622,397 -806,496 -288,154 -568,347 -835,437 -42,51 -1358,799 -1495,848l-52 43c-6,5 -20,16 -27,22l-1082 612c-363,211 -827,486 -1205,645 -61,97 -631,367 -773,463 -112,76 -296,198 -390,281 -148,130 -154,196 -319,302 -69,139 -93,110 -209,247 -79,93 -135,185 -192,273 -482,746 -598,1262 -600,2193 -2,1217 6,2440 -9,3655 -30,2431 40,4879 9,7311 -15,1231 -12,2475 -10,3707 4,2353 -356,4093 1820,5511l2336 1329c158,54 2112,1172 2197,1252 281,94 586,302 865,456 214,118 649,298 775,476 125,25 1370,715 1471,805 261,89 572,314 830,436 167,79 604,334 723,444 302,107 873,460 1181,639 197,115 400,236 589,341 133,75 466,222 515,307 293,117 601,295 877,455 258,151 576,306 795,452 288,202 818,482 1146,650 417,214 767,455 1181,671 1093,571 1785,466 3030,242 131,-86 266,-112 411,-181 136,-65 229,-130 363,-204 227,-125 506,-296 739,-392 190,-151 572,-317 787,-448 230,-139 530,-333 781,-422 178,-162 537,-349 762,-457 256,-122 518,-330 791,-423 149,-106 398,-226 570,-323 194,-110 339,-207 550,-326 256,-145 931,-555 1149,-600 76,-120 1389,-850 1576,-908 230,-171 480,-281 740,-431 219,-126 475,-290 717,-412 345,-229 803,-445 1190,-671 339,-197 826,-496 1196,-653 204,-164 558,-308 786,-451 218,-137 554,-337 785,-419 151,-138 1366,-821 1551,-869 94,-90 691,-389 1083,-701 110,-88 332,-312 438,-434 101,-116 260,-378 366,-467 156,-467 370,-721 472,-1328 72,-428 56,-1238 47,-1710 -22,-1162 -2,-2337 -8,-3501 -17,-3369 83,-7210 6,-10503 -25,-1060 125,-2398 -203,-3309 -520,-1443 -1575,-1909 -2697,-2553 -291,-167 -836,-436 -1055,-625 -206,-69 -2252,-1239 -2285,-1288 -293,-123 -582,-284 -876,-455 -234,-136 -611,-313 -790,-463 -262,-138 -518,-279 -755,-421 -252,-150 -474,-238 -707,-411 -304,-95 -874,-485 -1204,-659 -271,-143 -1040,-499 -1170,-694 -139,-32 -1344,-705 -1471,-805 -528,-196 -1140,-687 -1649,-894 -466,-285 -891,-498 -1354,-768 -464,-270 -860,-548 -1359,-752 -1446,-592 -2324,-228 -3440,186zm11012 19521l1827 -5 -3 1811 -1822 -8 3 314 -5 1508 -944 11 -699 5c-229,-51 -114,26 -180,-179l3 -1646 -1813 -18 -7 -1794 1173 2 660 -15 -6 -1813 1811 -1 6 1624 -5 205zm6367 -1818l1 1819 432 0 772 0 618 0 -5 1802 -1811 -5 -6 1814 -341 15 -772 0 -702 -25 1 -1795 -1823 2 -5 -1809 1808 -2 34 -1828 1798 11zm-11871 13009c4,0 -3,6 0,0zm736 -20302c988,436 1705,885 2450,1447l1891 1951c-167,161 -1153,681 -1410,836l-1452 814c-68,82 -914,561 -1081,652 -91,-60 -528,-510 -900,-784 -147,-109 -336,-249 -517,-360 -163,-100 -345,-167 -511,-279l-923 -390c-301,-1 -597,-131 -912,-178 -313,-47 -640,-59 -973,-59 -824,1 -1158,136 -1876,275l-779 301c-132,103 -380,192 -519,270 -180,100 -296,196 -462,312 -707,489 -1467,1287 -1874,2040 -79,146 -149,353 -252,485l-293 779c-315,1322 -459,2428 3,3765 91,670 750,1657 1091,2095 467,600 1013,1072 1729,1515 689,426 1493,696 2407,841 1247,198 1886,-76 2860,-265 200,-116 525,-215 771,-338 298,-149 462,-240 727,-407 199,-112 463,-319 643,-484 154,-142 428,-423 560,-512 109,66 224,99 309,204 252,84 2358,1319 2757,1553l881 514c-40,75 -122,218 -159,268 -425,565 -1344,1420 -1918,1846 -411,306 -1038,777 -1539,963 -164,140 -1193,591 -1430,588 -24,27 -32,39 -34,43 -4,0 -17,4 -58,28 -616,363 -2856,602 -3443,604 -554,2 -1394,-52 -1928,-162 -288,-59 -1411,-245 -1607,-463 -254,6 -1273,-448 -1481,-588 -254,-82 -650,-342 -889,-479l-758 -529c-830,-636 -1153,-991 -1866,-1797 -560,-634 -1233,-1787 -1561,-2590 -280,-492 -491,-1376 -633,-1953 -177,-719 -262,-1525 -271,-2284 -16,-1396 334,-3190 844,-4273 460,-1012 825,-1692 1499,-2576l330 -393c99,-96 88,-65 182,-175 502,-585 228,-275 752,-747 85,-76 82,-98 172,-185 428,-410 1494,-1059 1954,-1342 199,-123 831,-353 938,-464 298,-80 682,-237 986,-341 348,-120 674,-181 1027,-259 736,-163 1533,-240 2312,-236 1215,5 3346,373 4237,900z"/>
  <path class="fil1" d="M0 0l60939 0 0 30470c0,16828 -13642,30470 -30470,30470l-30470 0 0 -60939zm60939 30470l0 30470 -30470 0c-16828,0 -30470,-13642 -30470,-30470 0,-16828 13642,-30470 30470,-30470 16828,0 30470,13642 30470,30470z"/>
 </g>
</svg>
