<?xml version="1.0" encoding="UTF-8"?>
<!DOCTYPE svg PUBLIC "-//W3C//DTD SVG 1.1//EN" "http://www.w3.org/Graphics/SVG/1.1/DTD/svg11.dtd">
<!-- Creator: CorelDRAW X6 -->
<svg xmlns="http://www.w3.org/2000/svg" xml:space="preserve" width="364px" height="364px" version="1.1" style="shape-rendering:geometricPrecision; text-rendering:geometricPrecision; image-rendering:optimizeQuality; fill-rule:evenodd; clip-rule:evenodd"
viewBox="0 0 92782 92782"
 xmlns:xlink="http://www.w3.org/1999/xlink">
 <defs>
  <style type="text/css">
   <![CDATA[
    .fil3 {fill:none}
    .fil1 {fill:#6A1577}
    .fil2 {fill:#813084}
    .fil0 {fill:#9A4993}
   ]]>
  </style>
 </defs>
 <g id="Capa_x0020_1">
  <metadata id="CorelCorpID_0Corel-Layer"/>
  <g id="_522438456">
   <path class="fil0" d="M24858 58870c23,-214 652,-473 987,-671 1193,-707 7537,-4384 7736,-4408 -47,-296 -470,-959 -600,-1277 -95,-234 -171,-370 -268,-615 -95,-238 -172,-437 -258,-681 -2012,-5722 -74,-12152 4366,-15883 5411,-4547 13242,-4789 18969,56l715 665c628,627 2127,2293 2415,3160 14,-11 29,-27 39,-36 310,-281 1831,-1112 2194,-1318 730,-413 1452,-844 2206,-1272 726,-411 1487,-855 2212,-1267l1959 -1136c206,-113 69,-101 279,-50 -48,-264 17,-69 -108,-282 -652,-1113 -2114,-1702 -3173,-2343l-11138 -6418c-788,-473 -4861,-2862 -5628,-3150 -1701,-638 -3051,-56 -4482,803l-4656 2687c-338,185 -609,366 -940,550 -330,183 -588,334 -917,518 -329,184 -621,348 -946,545l-9283 5347c-1301,764 -2133,1686 -2284,3568 -63,779 -3,4722 -3,5849l0 14630c-1,496 126,1883 463,2300 96,119 1,38 144,129z"/>
   <path class="fil1" d="M24858 58870c-38,157 -36,29 5,163 192,622 1591,1491 2167,1805 472,257 869,498 1330,768l2701 1550c2565,1401 5437,3172 8024,4618 482,269 892,509 1365,788 445,261 3507,2070 4046,2303 2031,877 3199,252 4822,-676 907,-519 1795,-1030 2699,-1551 214,-123 444,-264 665,-384l3329 -1915c475,-265 898,-538 1363,-790 222,-120 451,-261 665,-384l2666 -1530c826,-451 5591,-3189 6030,-3520 238,-179 364,-272 562,-486 99,-107 157,-196 244,-309 243,-320 160,-274 156,-340l34 -196 -2206 -1276c-478,-287 -6278,-3747 -6552,-3717l-993 1436c-960,1250 -1589,1823 -2773,2803 -144,119 -236,172 -383,280 -3515,2596 -8342,3499 -12862,2113 -2452,-752 -4411,-2043 -6218,-3830 -798,-789 -1397,-1748 -2023,-2673 -115,-170 -75,-107 -143,-129 -200,24 -6543,3701 -7736,4408 -335,198 -964,457 -987,671z"/>
   <path class="fil2" d="M58921 39216c-300,-18 -2734,1512 -3166,1748l-2378 1376c-307,181 -647,313 -805,520 -249,6 -1272,679 -1576,853 -547,313 -4446,2513 -4605,2678l4699 2754c272,155 531,302 807,464 723,426 699,321 620,538 137,-57 110,92 110,-110 654,438 2693,1539 3564,2067l2784 1687c273,-30 6074,3430 6552,3717l2206 1276 -34 196c85,-53 99,-31 208,-237 365,-688 454,-1608 454,-2413l0 -19543c0,-673 -53,-2034 -460,-2573 -94,-124 -1,-48 -91,-77 -209,-51 -73,-63 -279,50l-1959 1136c-725,412 -1486,856 -2212,1267 -754,427 -1476,859 -2206,1272 -363,206 -1884,1037 -2194,1318 -10,9 -26,25 -39,36zm-924 6453l0 -1518 1173 0 0 -1145 1518 0 0 1145 1725 0 0 -1145 1518 0 0 1145 1159 0 0 1518 -1159 0 0 1711 1159 0 0 1518 -1159 0 0 1201 -1518 0 0 -1201 -1725 0 0 1201 -1518 0 0 -1201 -1173 0 0 -1518 1173 0 0 -1711 -1173 0zm4417 1711l0 -1711 -1725 0 0 1711 1725 0z"/>
   <path class="fil0" d="M40040 50092c48,-159 539,-383 692,-469l4834 -2784c252,-141 555,-346 826,-448 159,-165 4058,-2365 4605,-2678 304,-174 1327,-847 1576,-853 -50,-314 -512,-911 -731,-1146 -979,-1052 -1882,-1719 -3278,-2187 -3884,-1300 -7971,896 -9207,4637 -645,1952 -437,3774 442,5617 145,304 116,233 242,312z"/>
   <path class="fil1" d="M40040 50092c-66,298 814,1200 970,1404 241,316 1027,912 1359,1125 1017,653 2200,1115 3854,1115 2540,-1 4709,-1113 6107,-3168 247,-363 225,-249 187,-420 79,-218 103,-112 -620,-538 -276,-163 -535,-309 -807,-464l-4699 -2754c-271,102 -574,308 -826,448l-4834 2784c-153,86 -644,311 -692,469z"/>
   <polygon class="fil2" points="62413,47381 62413,45670 60688,45670 60688,47381 "/>
  </g>
  <path class="fil3" d="M0 0l92782 0 0 46391c0,25621 -20770,46391 -46391,46391l-46391 0 0 -92782zm92782 46391l0 46391 -46391 0c-25621,0 -46391,-20770 -46391,-46391 0,-25621 20770,-46391 46391,-46391 25621,0 46391,20770 46391,46391z"/>
 </g>
</svg>
