<?xml version="1.0" encoding="UTF-8"?>
<!DOCTYPE svg PUBLIC "-//W3C//DTD SVG 1.1//EN" "http://www.w3.org/Graphics/SVG/1.1/DTD/svg11.dtd">
<!-- Creator: CorelDRAW X6 -->
<svg xmlns="http://www.w3.org/2000/svg" xml:space="preserve" width="364px" height="364px" version="1.1" style="shape-rendering:geometricPrecision; text-rendering:geometricPrecision; image-rendering:optimizeQuality; fill-rule:evenodd; clip-rule:evenodd"
viewBox="0 0 136036 136036"
 xmlns:xlink="http://www.w3.org/1999/xlink">
 <defs>
  <style type="text/css">
   <![CDATA[
    .fil1 {fill:none}
    .fil0 {fill:#0D7DB9}
   ]]>
  </style>
 </defs>
 <g id="Capa_x0020_1">
  <metadata id="CorelCorpID_0Corel-Layer"/>
  <g id="_689810352">
   <path class="fil0" d="M51064 75043c-1627,1021 -6321,5819 -6701,7741 -640,3237 2809,7310 6139,7957 2556,497 5959,-3390 6007,-3818 160,-1402 -1492,-2303 -832,-2874 946,-1578 10372,-900 16720,-1018 7583,-1750 12688,-8543 12688,-16658l1099 0c0,6958 -4026,14017 -9550,16658 1631,1427 6653,2036 10674,4599 2208,1801 1454,2428 2373,5168l5922 57c1866,-3533 -483,-4724 3921,-9812l5940 -8377c3803,-2676 12938,985 20985,2923 -11244,-14136 -28620,-30163 -48041,-28755 -4134,300 -12750,296 -15908,1509 48,2253 -3928,8395 -9528,11461l-443 -455c1264,-598 16100,-12136 5835,-18868 -1665,-1093 -6278,-1926 -8185,-630 -1010,1117 -229,-198 -781,1883 -620,2335 -408,4392 -3105,6306 -7515,5548 -8849,-8277 -25878,-6769 5245,2109 6778,2205 8735,5090l1940 3358 1079 1960c-928,2932 -3504,3964 -6424,5435 -3924,1977 -5127,1780 -10194,1861 1641,3525 1807,1661 1431,6081 -191,2251 1279,4149 2805,5109 2715,-1442 2823,-3974 7166,-3727 -228,2603 -69,1715 -1691,2852 -1866,1307 -1573,229 -2124,2111 4589,3773 9518,-2182 12593,-2835 4689,-996 4520,1079 7162,1561 4716,859 6348,-1701 7502,-1949 1427,1768 947,2787 667,4864zm-23078 -26680c-3509,-8 -8395,-768 -9706,-1257 1708,1771 3397,2872 6437,3227 1701,199 3246,158 4792,771"/>
   <path class="fil0" d="M99401 85216c329,1222 190,269 695,1119 1825,3069 580,2051 810,6256l5119 -45c303,-1556 1877,-6950 1894,-7785 40,-2125 -2610,-4666 -4118,-5297 -962,987 -3593,4536 -4400,5752z"/>
   <path class="fil0" d="M62411 83867c451,1725 3385,5640 4369,7304l7239 10c-83,-2151 -2038,-5636 -3077,-7314l-8531 0z"/>
  </g>
  <path class="fil1" d="M0 0l136036 0 0 68018c0,37565 -30453,68018 -68018,68018l-68018 0 0 -136036zm136036 68018l0 68018 -68018 0c-37565,0 -68018,-30453 -68018,-68018 0,-37565 30453,-68018 68018,-68018 37565,0 68018,30453 68018,68018z"/>
 </g>
</svg>
