<?xml version="1.0" encoding="UTF-8"?>
<!DOCTYPE svg PUBLIC "-//W3C//DTD SVG 1.1//EN" "http://www.w3.org/Graphics/SVG/1.1/DTD/svg11.dtd">
<!-- Creator: CorelDRAW X6 -->
<svg xmlns="http://www.w3.org/2000/svg" xml:space="preserve" width="364px" height="364px" version="1.1" style="shape-rendering:geometricPrecision; text-rendering:geometricPrecision; image-rendering:optimizeQuality; fill-rule:evenodd; clip-rule:evenodd"
viewBox="0 0 138303 138303"
 xmlns:xlink="http://www.w3.org/1999/xlink">
 <defs>
  <style type="text/css">
   <![CDATA[
    .fil4 {fill:none}
    .fil2 {fill:#E1E1E1}
    .fil0 {fill:#E34F26}
    .fil1 {fill:#EE6429}
    .fil3 {fill:#FEFEFE}
   ]]>
  </style>
 </defs>
 <g id="Capa_x0020_1">
  <metadata id="CorelCorpID_0Corel-Layer"/>
  <g id="_519850352">
   <path class="fil0" d="M68874 108000l485 16c508,-333 12287,-3554 13875,-3983l13871 -3929 6230 -69642c-848,-258 -48050,-92 -51338,-92 -5571,0 -11501,-196 -17028,13 361,5742 1034,11727 1550,17473l3888 43615c124,1417 523,7847 819,8669l27647 7860z"/>
   <path class="fil1" d="M69056 40678l25059 0 -911 9859 -24264 0 -13782 -24c2713,654 12340,-469 14102,276l42 9718c-1010,449 -5336,173 -6735,173 -1114,0 -5869,216 -6534,-196 196,282 -279,190 375,261l12536 10 23359 43c-717,4916 -1017,10232 -1443,15219 -427,4999 -715,10419 -1365,15379l-20450 5619 -230 -13 461 309 -15 9853c691,62 11261,-3067 13018,-3516l13168 -3737 6190 -69226 -32344 -44c-262,2555 377,8898 -237,10036z"/>
   <path class="fil2" d="M46790 70779l22220 22 -67 -10045 -12536 -10c-654,-71 -179,21 -375,-261l-875 -9971 13782 24 34 -9867 -24756 -8 2572 30117z"/>
   <path class="fil3" d="M69011 70801l12378 -1 -1230 12851 -10992 2918 120 32 -154 221c-397,807 -51,8607 -88,10195l20450 -5619c650,-4959 938,-10380 1365,-15379 426,-4987 726,-10304 1443,-15219l-23359 -43 67 10045z"/>
   <path class="fil2" d="M68814 97003l230 13c37,-1588 -309,-9388 88,-10195l154 -221c-841,-52 -10905,-2758 -11302,-3040l-720 -7823 -9860 -27 1218 15709 20192 5584z"/>
   <polygon class="fil3" points="68940,50538 93204,50537 94115,40678 69056,40678 68974,40670 "/>
   <path class="fil1" d="M69166 86568l10992 -2918 1230 -12851 -12378 1 -22220 -22c177,144 -79,105 519,235 132,28 584,29 738,27 6443,-83 15171,-130 21267,1 -524,1232 251,12897 -148,15526z"/>
   <path class="fil0" d="M56033 60485c665,412 5420,196 6534,196 1399,0 5724,276 6735,-173l-42 -9718c-1762,-745 -11389,378 -14102,-276l875 9971z"/>
  </g>
  <path class="fil4" d="M0 0l138303 0 0 69152c0,38191 -30960,69151 -69151,69151l-69152 0 0 -138303zm138303 69152l0 69151 -69151 0c-38191,0 -69151,-30960 -69151,-69151 0,-38191 30960,-69151 69151,-69151 38191,0 69151,30960 69151,69151z"/>
 </g>
</svg>
