<?xml version="1.0" encoding="UTF-8"?>
<!DOCTYPE svg PUBLIC "-//W3C//DTD SVG 1.1//EN" "http://www.w3.org/Graphics/SVG/1.1/DTD/svg11.dtd">
<!-- Creator: CorelDRAW X6 -->
<svg xmlns="http://www.w3.org/2000/svg" xml:space="preserve" width="364px" height="364px" version="1.1" style="shape-rendering:geometricPrecision; text-rendering:geometricPrecision; image-rendering:optimizeQuality; fill-rule:evenodd; clip-rule:evenodd"
viewBox="0 0 711619 711619"
 xmlns:xlink="http://www.w3.org/1999/xlink">
 <defs>
  <style type="text/css">
   <![CDATA[
    .fil3 {fill:none}
    .fil1 {fill:black}
    .fil2 {fill:#645A0C}
    .fil0 {fill:#F7DF1E}
   ]]>
  </style>
 </defs>
 <g id="Capa_x0020_1">
  <metadata id="CorelCorpID_0Corel-Layer"/>
  <g id="_689805768">
   <polygon class="fil0" points="201823,509801 509803,509801 509803,201820 201823,201820 "/>
   <path class="fil1" d="M408555 442603l-23179 13369c2036,7550 13639,18562 21697,22586 11049,5514 23116,8139 37480,6837 25907,-2347 44836,-18634 40836,-47435 -4974,-35818 -51632,-37547 -60724,-50912 -7529,-11068 3518,-24882 18978,-18978 2883,1101 5006,2834 6588,4586 3248,3596 3070,4515 4667,6477 4095,-2179 11938,-7672 16748,-10668 1985,-1235 4145,-2375 5565,-3799 -3924,-8933 -13911,-17381 -23479,-20538 -21614,-7139 -51142,-510 -58452,24981 -3649,12727 -330,26990 6073,35481 6214,8238 14221,12801 25741,18147 9584,4450 23922,8736 28095,16190 3612,6451 1246,12778 -2710,16254 -8150,7155 -24273,6017 -33480,-866 -2541,-1900 -3933,-3174 -5697,-5475 -614,-801 -4367,-5964 -4748,-6237z"/>
   <path class="fil1" d="M340343 444941c307,17946 -20414,17826 -27497,9664 -1505,-1733 -5293,-7031 -6156,-9577 -1953,704 -4203,2317 -6045,3444 -3518,2154 -16164,9443 -17579,10897 2920,7631 11232,16303 17533,19797 20621,11435 54415,9260 65255,-16296 1507,-3552 3730,-11319 3259,-15649 -263,-1743 242,-10179 242,-12875l-21 -90924 -28446 0c0,10378 635,99713 -545,101518z"/>
   <path class="fil2" d="M340343 444941c1179,-1805 545,-91141 545,-101518l28446 0 21 90924c0,2696 -505,11132 -242,12875 1226,-1609 605,-77119 605,-91025 0,-3652 351,-9623 -141,-12993 -2544,-372 -27056,-390 -28995,69l-238 101668z"/>
  </g>
  <path class="fil3" d="M0 0l711619 0 0 355811c0,196507 -159301,355808 -355808,355808l-355811 0 0 -711619zm711619 355811l0 355808 -355808 0c-196507,0 -355808,-159301 -355808,-355808 0,-196507 159301,-355808 355808,-355808 196507,0 355808,159301 355808,355808z"/>
 </g>
</svg>
