<?xml version="1.0" encoding="UTF-8"?>
<!DOCTYPE svg PUBLIC "-//W3C//DTD SVG 1.1//EN" "http://www.w3.org/Graphics/SVG/1.1/DTD/svg11.dtd">
<!-- Creator: CorelDRAW X6 -->
<svg xmlns="http://www.w3.org/2000/svg" xml:space="preserve" width="364px" height="364px" version="1.1" style="shape-rendering:geometricPrecision; text-rendering:geometricPrecision; image-rendering:optimizeQuality; fill-rule:evenodd; clip-rule:evenodd"
viewBox="0 0 134792 134791"
 xmlns:xlink="http://www.w3.org/1999/xlink">
 <defs>
  <style type="text/css">
   <![CDATA[
    .fil2 {fill:none}
    .fil1 {fill:#0D8AC7}
    .fil0 {fill:#EB2025}
   ]]>
  </style>
 </defs>
 <g id="Capa_x0020_1">
  <metadata id="CorelCorpID_0Corel-Layer"/>
  <g id="_689809344">
   <path class="fil0" d="M74919 33180c0,376 132,830 165,1220 115,1336 87,2482 -215,3776 -725,3108 -2415,5629 -4779,7613l-3793 3124c-1232,1029 -3284,2724 -4424,3839l-519 506c-1168,1087 -2471,2643 -3174,4062 -796,1606 -801,2911 -60,4491 290,618 676,1335 1017,1836 1140,1678 2383,3312 3730,4818 735,821 2691,3007 3433,3676 187,168 584,611 735,719 -88,-317 -664,-1016 -865,-1294 -1189,-1642 -3276,-5178 -3915,-6877 -753,-2002 -1289,-3331 -458,-5386 531,-1316 1434,-2532 2326,-3596 98,-117 164,-209 262,-316l2593 -2723c105,-107 195,-171 300,-277 108,-110 193,-197 302,-306 972,-972 2077,-1957 3001,-2891l1824 -1732c209,-199 377,-395 586,-598 377,-367 753,-842 1075,-1295 2120,-2981 2832,-6232 1953,-10240 -147,-671 -310,-1353 -687,-1875 -14,-19 -413,-643 -413,-275z"/>
   <path class="fil1" d="M40092 99286l0 212c132,309 239,587 536,783 1643,1083 5022,1558 7018,1795l882 105c282,39 632,58 943,86l3979 306c147,13 331,13 491,24 585,40 1624,44 2194,89 996,77 2959,76 4036,86 1692,16 3441,21 5099,-22 842,-22 1891,-20 2714,-73l5753 -270c145,-20 320,-37 463,-45 2360,-130 4890,-437 7267,-873 1112,-204 2214,-446 3298,-740 1215,-330 1917,-559 3056,-1009 822,-324 3556,-1604 3330,-2714 -56,-277 -228,-497 -385,-639 -226,-205 -226,-271 -599,-442 209,453 478,1038 -5,1491 -176,165 -279,296 -548,445 -29,16 -65,32 -85,44 -22,12 -62,36 -81,48 -621,366 -1305,576 -2008,776l-1638 379c-3064,607 -7577,1092 -10847,1261 -1261,65 -2501,122 -3767,205 -1195,77 -2439,113 -3652,140 -2291,52 -4767,101 -6955,102 -3031,0 -8114,-470 -11002,-924 -951,-150 -2935,-532 -3685,-829 -885,-351 -1761,-858 -598,-1836 275,-231 632,-387 968,-536 1775,-786 3438,-966 5281,-1317 -123,-105 -710,-95 -853,-94 -327,3 -623,16 -932,31 -1739,82 -4772,740 -6408,1348 -578,215 -831,314 -1368,587 -352,179 -924,553 -1157,796 -567,593 -453,516 -735,1224z"/>
   <path class="fil0" d="M72181 71162c0,1340 -727,2419 -1451,3479 -127,185 -630,826 -664,974 211,-9 785,-425 979,-562 2032,-1441 4643,-3607 4643,-6325 0,-2208 -1863,-4581 -2905,-6271 -501,-812 -1295,-2034 -1128,-3418 241,-1991 2336,-4119 3784,-5371 1728,-1493 3351,-2624 5260,-3900l2446 -1557c240,-153 287,-128 315,-266 -7,-4 -19,-15 -22,-8 -3,7 -17,-6 -22,-7 -133,-15 -322,66 -475,109 -1040,290 -2635,861 -3579,1228 -1258,489 -2601,1094 -3787,1720 -3427,1810 -7258,4546 -7959,8505 -407,2303 420,4649 1650,6390 407,576 751,1070 1138,1617 433,612 1009,1416 1341,2085 79,157 153,305 212,490 48,149 117,344 151,522 23,121 18,123 36,249 15,105 36,199 36,318z"/>
   <path class="fil1" d="M65808 95702l769 0c583,0 1060,-57 1633,-66 442,-7 1172,-75 1658,-143 2416,-340 4780,-828 7106,-1544 501,-154 1504,-418 1855,-631l-1570 -717c-109,-53 -142,-71 -246,-134l-1232 -693c-1230,-726 -800,-570 -2244,-264 -2282,483 -6569,712 -8790,711 -1437,0 -3179,-45 -4768,-120 -676,-32 -2081,-210 -2592,-571 -1105,-780 -283,-1172 -240,-1594 -653,-9 -2923,863 -3052,2141 -76,745 513,1336 1093,1684 524,315 1094,547 1693,742 1647,539 3712,863 5499,1006l3429 193z"/>
   <path class="fil1" d="M62926 87518l2147 82c87,5 104,10 153,10l4425 -112 1502 -137c56,-7 128,-24 221,-37 557,-79 1107,-119 1685,-232 291,-56 532,-97 814,-145 1004,-168 2073,-427 3123,-689 615,-153 2450,-635 2930,-884 -277,-150 -526,-96 -1556,-738 -441,-275 -1096,-907 -1365,-970 -293,-68 -1606,204 -2012,263 -1583,230 -4752,652 -6269,707 -678,24 -1335,101 -1985,127 -716,28 -1437,95 -2115,95 -1129,0 -2122,51 -3331,33 -1810,-27 -2931,-71 -4670,-418 -958,-191 -2485,-847 -1477,-2102 113,-140 354,-351 419,-494 -597,63 -1481,378 -1935,614 -330,172 -494,300 -779,499 -180,126 -344,296 -486,476 -199,253 -439,754 -453,1113 -21,532 299,936 721,1198 1091,677 3141,1071 4477,1260l3448 361c835,44 1454,118 2369,118z"/>
   <path class="fil1" d="M82742 76062c-97,-70 -2016,277 -2270,318 -2313,374 -4821,613 -7159,878 -1201,136 -2472,211 -3669,328l-2426 165c-186,5 -451,23 -641,42 -216,21 -423,14 -640,37 -1065,113 -3911,94 -5024,81 -631,-7 -1263,-44 -1894,-32 -660,0 -1410,-93 -2083,-96 -347,-1 -756,-41 -1113,-67 -894,-66 -2419,-220 -3198,-416 -1838,-462 -1395,-1088 -403,-1758 290,-196 289,-164 603,-327 491,-255 1106,-483 1698,-705 637,-239 1239,-407 1816,-583l1743 -494c122,-46 48,-3 117,-74 -262,13 -429,-2 -683,3 -284,6 -596,64 -871,94 -2251,245 -5493,1094 -7541,1913l-992 418c-117,60 -202,102 -319,160 -494,244 -1047,538 -1467,902 -140,122 -344,385 -331,618 10,198 251,410 411,510 129,81 185,112 310,170 22,10 45,22 65,31 248,108 734,230 995,320l1581 338c1370,233 3366,442 4690,535 571,40 1192,67 1767,126 747,77 2471,115 3332,157 1508,73 2281,49 3749,11 59,-1 135,3 177,3 30,0 111,-7 203,-11 1304,-46 2537,-150 3856,-221l2191 -185c134,-13 298,-29 431,-42 1502,-144 3004,-352 4474,-494 103,-10 80,-13 195,-31 139,-22 289,-35 423,-50 289,-34 564,-73 849,-114 1121,-159 2170,-282 3331,-474 998,-166 589,-24 1391,-503l2204 -1351c120,-74 102,-27 118,-129z"/>
   <path class="fil1" d="M50410 104366c199,212 2537,742 2654,771 1765,430 4075,814 5890,1000 1766,181 3010,289 4700,369 231,11 525,14 780,31l1436 49c377,10 665,-28 1037,20 74,10 97,7 156,7 1291,-10 2217,6 3836,-72 1904,-91 4100,-186 5974,-390 1053,-114 2082,-200 3121,-338 1010,-134 1994,-283 2986,-440 881,-139 2064,-378 2935,-561l2633 -757c1466,-488 3383,-1445 4501,-2385 379,-318 562,-539 861,-869 144,-158 601,-827 554,-1155l-926 654c-79,64 -120,100 -223,160l-752 466c-377,244 -1782,912 -2162,1072 -3223,1356 -6900,2067 -10351,2526 -1960,261 -3908,405 -5916,554 -1521,113 -4383,184 -5925,185 -2052,0 -3944,-3 -5957,-93 -3148,-140 -5791,-272 -8909,-562 -397,-37 -2764,-285 -2934,-244z"/>
   <path class="fil1" d="M84918 73669l1066 -138c872,-94 2216,10 3094,366 990,400 1694,978 2128,2002 907,2139 -90,4057 -1201,5497 -76,98 -79,136 -179,237 -284,288 -1051,1225 -1391,1490l-2610 2131c-49,34 -80,61 -130,95 -107,71 -150,84 -253,164 -94,74 -162,113 -245,170 -345,236 -1868,1152 -2007,1309 529,0 2343,-704 3012,-942 460,-164 914,-382 1377,-578l1630 -837c794,-495 1305,-787 2063,-1395 418,-335 928,-758 1273,-1163 90,-105 172,-176 241,-270 78,-106 136,-167 215,-265 77,-94 143,-187 224,-289 45,-56 46,-56 97,-126 929,-1282 1454,-2725 1067,-4370 -238,-1013 -612,-1477 -1222,-2207 -237,-285 -1013,-860 -1413,-1086 -1730,-977 -3487,-1079 -5390,-576 -480,126 -748,251 -1131,503 -116,76 -263,159 -315,279z"/>
  </g>
  <path class="fil2" d="M0 0l134791 0 0 67396c0,37221 -30174,67395 -67395,67395l-67396 0 0 -134791zm134791 67396l0 67395 -67395 0c-37221,0 -67395,-30174 -67395,-67395 0,-37221 30174,-67395 67395,-67395 37221,0 67395,30174 67395,67395z"/>
 </g>
</svg>
