<?xml version="1.0" encoding="UTF-8"?>
<!DOCTYPE svg PUBLIC "-//W3C//DTD SVG 1.1//EN" "http://www.w3.org/Graphics/SVG/1.1/DTD/svg11.dtd">
<!-- Creator: CorelDRAW X6 -->
<svg xmlns="http://www.w3.org/2000/svg" xml:space="preserve" width="364px" height="364px" version="1.1" style="shape-rendering:geometricPrecision; text-rendering:geometricPrecision; image-rendering:optimizeQuality; fill-rule:evenodd; clip-rule:evenodd"
viewBox="0 0 641710 641710"
 xmlns:xlink="http://www.w3.org/1999/xlink">
 <defs>
  <style type="text/css">
   <![CDATA[
    .fil0 {fill:none}
    .fil1 {fill:#0D5DAC}
   ]]>
  </style>
 </defs>
 <g id="Capa_x0020_1">
  <metadata id="CorelCorpID_0Corel-Layer"/>
  <path class="fil0" d="M0 0l641710 0 0 320856c0,177202 -143652,320854 -320854,320854l-320856 0 0 -641710zm641710 320856l0 320854 -320854 0c-177202,0 -320854,-143652 -320854,-320854 0,-177202 143652,-320854 320854,-320854 177202,0 320854,143652 320854,320854z"/>
  <g id="_542243152">
   <path class="fil1" d="M160491 133852l0 374005c0,19149 5957,26715 25758,26715l269820 0c18110,0 25150,-8388 25150,-26715l0 -267147 -107966 0c-18943,0 -25608,-8511 -25608,-26715l0 -106858 -161396 0c-19801,0 -25758,7564 -25758,26715zm202762 221730c9131,12368 21437,18976 33138,32058 -11702,13082 -24007,19690 -33138,32058 2389,10272 11223,17490 18610,22931 9581,-4458 52764,-45198 59689,-54989 -6925,-9791 -50108,-50529 -59689,-54989 -7387,5443 -16221,12659 -18610,22931zm-82939 119732c8871,4065 22359,8578 29873,6681 5853,-11964 52146,-169397 52868,-182922l-29762 -8007c-7787,23435 -52296,170146 -52979,184248zm-78482 -87674l57144 54989c6708,-3089 17863,-13354 21414,-20261 -4950,-12093 -26022,-24490 -33274,-34729 7252,-10239 28324,-22636 33274,-34729 -3551,-6906 -14705,-17172 -21414,-20261l-57144 54989z"/>
   <path class="fil1" d="M374207 213040l107010 1020c-822,-19582 -10707,-24011 -20664,-33936l-53428 -53430c-8958,-8994 -15011,-20939 -32918,-18604l0 104950z"/>
  </g>
 </g>
</svg>
