<?xml version="1.0" encoding="UTF-8"?>
<!DOCTYPE svg PUBLIC "-//W3C//DTD SVG 1.1//EN" "http://www.w3.org/Graphics/SVG/1.1/DTD/svg11.dtd">
<!-- Creator: CorelDRAW X6 -->
<svg xmlns="http://www.w3.org/2000/svg" xml:space="preserve" width="364px" height="364px" version="1.1" style="shape-rendering:geometricPrecision; text-rendering:geometricPrecision; image-rendering:optimizeQuality; fill-rule:evenodd; clip-rule:evenodd"
viewBox="0 0 60376 60376"
 xmlns:xlink="http://www.w3.org/1999/xlink">
 <defs>
  <style type="text/css">
   <![CDATA[
    .fil2 {fill:none}
    .fil1 {fill:#021E46}
    .fil0 {fill:#8A93BE}
   ]]>
  </style>
 </defs>
 <g id="Capa_x0020_1">
  <metadata id="CorelCorpID_0Corel-Layer"/>
  <g id="_519023224">
   <path class="fil0" d="M28560 18610c-4993,190 -9837,1232 -13791,3189 -3108,1538 -7873,4876 -6722,9869 511,2214 2260,3935 3527,4925 5171,4039 13498,5433 20257,5172 4983,-192 9829,-1239 13783,-3188 3101,-1528 7867,-4898 6713,-9883 -513,-2215 -2258,-3928 -3530,-4919 -5181,-4036 -13467,-5425 -20239,-5167z"/>
   <path class="fil1" d="M14143 37057l2903 5 612 -3197c2179,-9 4152,274 5782,-860 1180,-820 2263,-2097 2450,-4198 201,-2260 -741,-3553 -2640,-3985 -969,-221 -2182,-144 -3204,-144 -1127,0 -2254,-3 -3380,1 -113,59 -43,-5 -102,113l-1821 9163c-103,516 -203,1029 -302,1534 -84,427 -274,1170 -298,1568z"/>
   <path class="fil1" d="M34627 37055l2905 8 610 -3196c2349,-33 3969,310 5779,-861 1180,-763 2266,-2149 2453,-4194 207,-2270 -735,-3559 -2641,-3991 -970,-220 -2184,-143 -3205,-143 -1127,0 -2253,1 -3380,0 -154,41 -161,417 -214,688l-2306 11689z"/>
   <path class="fil1" d="M25351 33853l2875 11 1404 -6883 2199 3c930,0 1203,188 1011,1154 -129,648 -249,1279 -367,1919 -105,567 -723,3482 -682,3806 791,-4 1583,-2 2374,0 781,1 612,333 909,-1451 228,-1368 455,-2743 701,-4120 229,-1279 412,-2552 -1224,-3240 -1319,-554 -2954,-320 -4447,-378l592 -3193 -2749 -8c-221,20 -178,43 -227,304 -511,2751 -1144,5631 -1657,8387 -116,624 -240,1239 -367,1867 -87,433 -342,1454 -346,1823z"/>
   <path class="fil0" d="M38758 31559c1044,-3 2029,94 2962,-256 729,-274 1236,-926 1444,-1790 715,-2968 -1327,-2510 -3637,-2531l-769 4576z"/>
   <path class="fil0" d="M18278 31533c639,151 2377,-2 2960,-230 751,-295 1215,-924 1440,-1796 757,-2936 -1383,-2507 -3633,-2524l-767 4550z"/>
  </g>
  <path class="fil2" d="M0 0l60376 0 0 30188c0,16672 -13516,30188 -30188,30188l-30188 0 0 -60376zm60376 30188l0 30188 -30188 0c-16672,0 -30188,-13516 -30188,-30188 0,-16672 13516,-30188 30188,-30188 16672,0 30188,13516 30188,30188z"/>
 </g>
</svg>
