<?xml version="1.0" encoding="UTF-8"?>
<!DOCTYPE svg PUBLIC "-//W3C//DTD SVG 1.1//EN" "http://www.w3.org/Graphics/SVG/1.1/DTD/svg11.dtd">
<!-- Creator: CorelDRAW X6 -->
<svg xmlns="http://www.w3.org/2000/svg" xml:space="preserve" width="364px" height="364px" version="1.1" style="shape-rendering:geometricPrecision; text-rendering:geometricPrecision; image-rendering:optimizeQuality; fill-rule:evenodd; clip-rule:evenodd"
viewBox="0 0 60619 60619"
 xmlns:xlink="http://www.w3.org/1999/xlink">
 <defs>
  <style type="text/css">
   <![CDATA[
    .fil1 {fill:none}
    .fil0 {fill:#0D5DAC}
   ]]>
  </style>
 </defs>
 <g id="Capa_x0020_1">
  <metadata id="CorelCorpID_0Corel-Layer"/>
  <path class="fil0" d="M30309 13186c9457,0 17123,7666 17123,17123 0,9457 -7666,17123 -17123,17123 -9457,0 -17123,-7666 -17123,-17123 0,-9457 7666,-17123 17123,-17123zm7177 13460c190,24 2605,9 3006,9l-2 9227c206,20 1435,6 1740,6l0 -9225 3011 -9 0 -1505 -7755 -9 0 1505zm-6491 9242l5884 0 0 -1507c-1334,0 -2824,20 -4138,-1l-2 -3175 3598 -2 2 -1507 -3598 0 -6 -3040 3910 -2 0 -1510 -5650 -4 0 10747zm-11191 0l1681 -1c0,-2474 22,-5046 -4,-7516 -2,-145 -58,-959 -36,-1003 39,22 208,402 303,559l1682 2659c440,663 906,1453 1347,2125l674 1062c52,86 1305,2099 1364,2114l1876 -2 0 -10743 -1674 -2 0 6905c0,509 21,963 70,1465 -60,-37 -16,7 -61,-61l-278 -469c-114,-172 -219,-351 -327,-521 -227,-357 -433,-702 -662,-1054l-3612 -5756c-70,-113 -284,-509 -359,-509l-1985 0 0 10747zm-2919 -1850c-538,61 -998,516 -925,1135 63,536 574,949 1205,869 521,-66 978,-532 897,-1137 -68,-510 -578,-936 -1176,-867z"/>
  <path class="fil1" d="M0 0l60619 0 0 30309c0,16739 -13570,30309 -30309,30309l-30309 0 0 -60619zm60619 30309l0 30309 -30309 0c-16739,0 -30309,-13570 -30309,-30309 0,-16739 13570,-30309 30309,-30309 16739,0 30309,13570 30309,30309z"/>
 </g>
</svg>
