<?xml version="1.0" encoding="UTF-8"?>
<!DOCTYPE svg PUBLIC "-//W3C//DTD SVG 1.1//EN" "http://www.w3.org/Graphics/SVG/1.1/DTD/svg11.dtd">
<!-- Creator: CorelDRAW X6 -->
<svg xmlns="http://www.w3.org/2000/svg" xml:space="preserve" width="364px" height="364px" version="1.1" style="shape-rendering:geometricPrecision; text-rendering:geometricPrecision; image-rendering:optimizeQuality; fill-rule:evenodd; clip-rule:evenodd"
viewBox="0 0 90641 90641"
 xmlns:xlink="http://www.w3.org/1999/xlink">
 <defs>
  <style type="text/css">
   <![CDATA[
    .fil2 {fill:none}
    .fil0 {fill:#3471A3}
    .fil1 {fill:#FFD042}
   ]]>
  </style>
 </defs>
 <g id="Capa_x0020_1">
  <metadata id="CorelCorpID_0Corel-Layer"/>
  <g id="_689813592">
   <path class="fil0" d="M32961 25935l40 5248 10740 41c256,0 513,-3 769,-1l1008 41c0,1940 132,1702 -444,1696l-16958 40c-1886,0 -3034,241 -4579,1316 -460,319 -1133,995 -1466,1441 -1224,1645 -1875,3454 -2209,5463l-209 1527c-66,463 -90,1213 -97,1953l0 1785c0,1321 238,3008 496,4269 575,2815 2106,5946 4932,7019 730,277 1205,380 2042,380l4279 0 58 -6524c86,-569 -71,-791 270,-1950 114,-388 210,-717 372,-1081 334,-747 605,-1197 1129,-1819 647,-769 1679,-1411 2667,-1733 882,-288 1669,-369 2568,-380 979,-12 1969,1 2949,1l8744 -57c814,-123 1638,114 2754,-193 1679,-463 2615,-914 3754,-2141 712,-767 1170,-2014 1361,-3040 135,-726 62,-12296 62,-13706 0,-423 -365,-1221 -551,-1588 -692,-1365 -2165,-2393 -3556,-2985 -528,-225 -1010,-381 -1581,-559 -1411,-440 -3215,-644 -4691,-760 -271,-21 -588,-35 -929,-43l-3010 0 -1539 92c-1000,131 -2322,249 -3317,518 -864,233 -1250,308 -2127,659 -495,198 -1026,458 -1446,734 -1005,659 -1573,1229 -2069,2331 -134,298 -178,499 -174,916 2,249 -36,311 -42,523 -5,183 1,381 1,567zm5405 -2342c1243,0 2251,1008 2251,2251 0,1243 -1008,2251 -2251,2251 -1243,0 -2251,-1008 -2251,-2251 0,-1243 1008,-2251 2251,-2251z"/>
   <path class="fil1" d="M32961 54964l40 9084c0,440 -64,1192 34,1541 128,458 243,744 437,1137 290,585 896,1352 1403,1746 1324,1029 2499,1599 4230,2028 2316,573 4112,678 6215,694l1876 0 1463 -87c609,-65 1269,-120 1881,-218 2037,-327 4175,-833 5762,-2111 869,-700 1730,-1806 1730,-2994l0 -3270c0,-1029 -41,-1920 -41,-2947l-12516 -40 0 -1696 8761 0c400,0 695,-43 1049,-41l6339 1c750,0 1378,-41 2099,-40 1435,2 2792,-536 3882,-1408 208,-166 360,-321 566,-484 113,-90 161,-152 253,-272 203,-263 375,-357 726,-889 574,-871 1101,-1823 1412,-2827 313,-1012 671,-2280 671,-3568l0 -5854c0,-2190 -903,-5136 -2180,-6945 -728,-1032 -1550,-1773 -2705,-2342 -267,-131 -1211,-484 -1575,-484l-5087 0 1 2262c1,287 -43,418 -41,726 5,1005 31,2072 1,3070 -36,1204 -123,2102 -583,3252 -195,487 -512,1085 -808,1494 -1186,1640 -3008,2533 -5030,2642 -481,26 -1044,0 -1534,0 -550,0 -976,41 -1494,40l-4562 0c-1054,0 -1973,41 -3028,41 -450,0 -3529,-34 -3805,31 -2132,500 -4050,1246 -5091,3347 -478,964 -715,1915 -713,3122l-40 2261zm19627 7742c1243,0 2251,1008 2251,2251 0,1243 -1008,2251 -2251,2251 -1243,0 -2251,-1008 -2251,-2251 0,-1243 1008,-2251 2251,-2251z"/>
  </g>
  <path class="fil2" d="M0 0l90641 0 0 45321c0,25030 -20291,45320 -45320,45320l-45321 0 0 -90641zm90641 45321l0 45320 -45320 0c-25030,0 -45320,-20291 -45320,-45320 0,-25030 20291,-45320 45320,-45320 25030,0 45320,20291 45320,45320z"/>
 </g>
</svg>
