<?xml version="1.0" encoding="UTF-8"?>
<!DOCTYPE svg PUBLIC "-//W3C//DTD SVG 1.1//EN" "http://www.w3.org/Graphics/SVG/1.1/DTD/svg11.dtd">
<!-- Creator: CorelDRAW X6 -->
<svg xmlns="http://www.w3.org/2000/svg" xml:space="preserve" width="364px" height="364px" version="1.1" style="shape-rendering:geometricPrecision; text-rendering:geometricPrecision; image-rendering:optimizeQuality; fill-rule:evenodd; clip-rule:evenodd"
viewBox="0 0 133599 133598"
 xmlns:xlink="http://www.w3.org/1999/xlink">
 <defs>
  <style type="text/css">
   <![CDATA[
    .fil2 {fill:none}
    .fil0 {fill:#3398DA}
    .fil1 {fill:#356D92}
   ]]>
  </style>
 </defs>
 <g id="Capa_x0020_1">
  <metadata id="CorelCorpID_0Corel-Layer"/>
  <path class="fil0" d="M35679 42102c-4776,394 -10886,992 -14756,3755 -5519,3939 4278,6852 7672,7531 3514,704 7794,1086 11520,835 3941,-264 7069,-647 10540,-1788 1585,-520 2964,-1174 4160,-1995 6818,-4672 -9312,-9150 -19136,-8339z"/>
  <path class="fil0" d="M87143 77938l-13 -5107c-2861,-1285 -4333,-4743 -3324,-8184 787,-2685 3319,-5484 6832,-5367 3201,106 5652,3040 6205,6016 366,1974 7,3669 -784,5213 -570,1112 -1826,2754 -3373,2801l-11 -2963 -4043 -36 -7 10941 4276 50c182,-3784 -692,-2322 2128,-3491 3816,-1583 6516,-5776 6761,-10114 388,-6882 -3736,-11962 -9677,-12721 -6951,-887 -12022,3468 -13221,8958 -1073,4911 797,9363 4380,12051 841,631 2606,1744 3872,1953z"/>
  <path class="fil0" d="M56527 54285c-339,75 -1352,703 -1833,936 -8732,4223 -24716,4201 -33654,12 -731,-342 -1263,-719 -1852,-970 -107,1121 -29,2595 -29,3755 0,1316 -211,2555 448,3439 912,1224 2940,2266 4808,2954 7522,2768 19287,2743 26823,9 1963,-712 3751,-1620 4817,-2933 696,-858 485,-2011 485,-3354 0,-1255 47,-2603 -13,-3847z"/>
  <path class="fil0" d="M56532 66486c-463,105 -3148,1952 -8285,3038 -8162,1725 -19484,1497 -27200,-2085 -645,-300 -1301,-764 -1869,-979 -76,1190 -18,2551 -18,3760 0,1300 -215,2549 465,3425 3048,3925 13378,5008 18250,5002 4733,-6 15214,-1074 18171,-4968 692,-912 495,-1955 495,-3345 0,-1266 37,-2589 -9,-3847z"/>
  <path class="fil0" d="M56542 78665c-187,41 -2589,1326 -3809,1743 -8696,2977 -20973,3289 -29650,47 -2024,-756 -3064,-1490 -3916,-1820 -34,1249 -7,2533 -7,3786 0,1609 -137,2035 768,3008 1036,1113 3035,2064 4832,2693 3899,1363 8611,1953 13115,1951 5039,-2 14417,-1033 17901,-4687 945,-991 766,-1364 765,-2964 0,-1252 -3,-2504 1,-3756z"/>
  <path class="fil0" d="M62695 73478l7 4553c2080,70 4219,6 6267,9 2054,3 3556,-349 4958,-1267 2959,-1938 3488,-5401 1079,-8601 -2896,-3847 -12175,-8046 -5367,-8808 2332,-260 5044,233 6000,89l4 -4228c-1213,-221 -4670,-44 -6105,-45 -2131,-1 -3620,118 -5190,1074 -3167,1929 -1861,6248 64,8713 536,686 952,1061 1489,1592l3333 2940c651,538 1115,925 1684,1507 3772,3849 -6241,2369 -8224,2473z"/>
  <path class="fil0" d="M104205 73850c-174,920 1230,3431 3234,3986 799,221 6169,228 7218,121l18 -4815c-1212,-46 -2735,37 -3805,-221 -977,-236 -1911,-1095 -1911,-2181 -194,-151 -95,106 -186,-400l-26 -15100 -4662 -4c-28,3202 -144,16335 120,18615z"/>
  <path class="fil1" d="M104205 73850c-264,-2280 -148,-15412 -120,-18615l4662 4 26 15100c91,506 -8,249 186,400 -466,-3955 271,-11772 -126,-15540 -531,-202 -4232,-183 -4840,-23 -63,470 -165,17056 -7,18129 78,532 -14,301 219,543z"/>
  <path class="fil2" d="M0 0l133598 0 0 66799c0,36892 -29907,66799 -66799,66799l-66799 0 0 -133598zm133598 66799l0 66799 -66799 0c-36892,0 -66799,-29907 -66799,-66799 0,-36892 29907,-66799 66799,-66799 36892,0 66799,29907 66799,66799z"/>
 </g>
</svg>
