<?xml version="1.0" encoding="UTF-8"?>
<!DOCTYPE svg PUBLIC "-//W3C//DTD SVG 1.1//EN" "http://www.w3.org/Graphics/SVG/1.1/DTD/svg11.dtd">
<!-- Creator: CorelDRAW X6 -->
<svg xmlns="http://www.w3.org/2000/svg" xml:space="preserve" width="364px" height="364px" version="1.1" style="shape-rendering:geometricPrecision; text-rendering:geometricPrecision; image-rendering:optimizeQuality; fill-rule:evenodd; clip-rule:evenodd"
viewBox="0 0 679583 679583"
 xmlns:xlink="http://www.w3.org/1999/xlink">
 <defs>
  <style type="text/css">
   <![CDATA[
    .fil2 {fill:none}
    .fil0 {fill:#000301}
    .fil1 {fill:#000301;fill-rule:nonzero}
   ]]>
  </style>
 </defs>
 <g id="Capa_x0020_1">
  <metadata id="CorelCorpID_0Corel-Layer"/>
  <g id="_689810568">
   <path class="fil0" d="M234876 524268l248384 0 0 -251060c0,-13574 648,-28724 68,-42086 -152,-3483 -800,-2566 -7949,-2561l-31512 0 0 -33086 -248384 0 0 251060c0,13594 -633,28691 -64,42082 101,2400 174,2473 2575,2575l36882 -64 9 15269c7,5956 -9,11916 -9,17872zm208817 -33615c-16655,862 -35786,55 -52876,55l-132358 0c-9436,-2 -8517,-952 -8420,4653 77,4600 18,9245 18,13849l217182 0 258 -252810c0,-14237 1153,-12150 -5769,-12082 -6421,62 -11195,-520 -17861,-520l-174 246854zm-232502 -16281c0,1748 941,1521 2623,1521l212456 0c1420,0 2361,227 2361,-1521l0 -263664 -216918 0 -522 263664z"/>
   <polygon class="fil0" points="236798,259154 405524,259154 406174,259154 406174,243144 405524,243144 237451,243144 236798,243144 "/>
   <path class="fil0" d="M236922 306823c0,1212 364,1578 1578,1578l165448 0 1931 -132 207 -1968 -35 -13662 -169127 0 -2 14184z"/>
   <path class="fil1" d="M286145 352185c926,0 1389,463 1389,1389l0 6174c0,928 -463,1391 -1389,1391l-34810 0c-1596,0 -2702,295 -3320,888 -617,591 -926,1453 -926,2583l0 1159c0,1029 309,1838 926,2431 617,591 1724,886 3320,886l26010 0c4323,0 7409,902 9262,2702 1852,1801 2777,4347 2777,7642l0 4320c0,1699 -205,3216 -617,4554 -412,1338 -1093,2471 -2046,3397 -952,926 -2200,1633 -3743,2123 -1543,489 -3447,734 -5711,734l-39518 0c-926,0 -1389,-465 -1389,-1391l0 -6174c0,-926 463,-1389 1389,-1389l36584 0c1596,0 2716,-284 3357,-849 644,-566 965,-1519 965,-2857l0 -2083c0,-1029 -322,-1827 -965,-2394 -641,-566 -1761,-849 -3357,-849l-25933 0c-4323,0 -7409,-888 -9262,-2663 -1852,-1777 -2777,-4360 -2777,-7757l0 -3397c0,-1596 205,-3049 617,-4360 410,-1312 1093,-2431 2046,-3357 952,-928 2200,-1636 3743,-2123 1543,-489 3447,-734 5711,-734l37667 0zm50864 0c3447,0 6355,295 8720,888 2367,591 4259,1517 5674,2777 1415,1261 2431,2883 3049,4863 617,1982 928,4362 928,7140l0 42066c0,1131 -566,1697 -1699,1697l-7563 0c-1133,0 -1699,-566 -1699,-1697l0 -15359 -29021 0c-3498,0 -6419,-284 -8760,-851 -2341,-564 -4219,-1479 -5634,-2740 -1415,-1259 -2431,-2881 -3049,-4863 -617,-1979 -926,-4360 -926,-7140l0 -11114c0,-2777 309,-5158 926,-7140 617,-1979 1633,-3602 3049,-4863 1415,-1261 3293,-2187 5634,-2777 2341,-593 5262,-888 8760,-888l21613 0zm-28944 24622c0,1647 128,3011 386,4091 258,1080 708,1955 1351,2623 644,670 1506,1133 2586,1391 1080,256 2445,386 4091,386l27939 0 0 -15359c0,-1596 -128,-2947 -386,-4054 -258,-1107 -708,-1979 -1351,-2623 -641,-644 -1503,-1107 -2586,-1391 -1080,-282 -2469,-423 -4166,-423l-19450 0c-1647,0 -3011,141 -4091,423 -1080,284 -1942,747 -2586,1391 -644,644 -1093,1517 -1351,2623 -258,1107 -386,2458 -386,4054l0 6869zm96633 -24622c928,0 1389,463 1389,1389l0 6485c0,926 -461,1389 -1389,1389l-20531 0c-1647,0 -3009,141 -4091,423 -1080,284 -1942,747 -2586,1391 -641,644 -1093,1517 -1349,2623 -258,1107 -388,2458 -388,4054l0 22922c0,1133 -564,1699 -1697,1699l-7563 0c-1184,0 -1777,-566 -1777,-1699l0 -25007c0,-2777 309,-5158 926,-7140 617,-1979 1636,-3602 3051,-4863 1415,-1261 3293,-2187 5634,-2777 2341,-593 5259,-888 8760,-888l21611 0z"/>
  </g>
  <path class="fil2" d="M0 0l679583 0 0 339793c0,187661 -152130,339790 -339790,339790l-339793 0 0 -679583zm679583 339793l0 339790 -339790 0c-187661,0 -339790,-152130 -339790,-339790 0,-187661 152130,-339790 339790,-339790 187661,0 339790,152130 339790,339790z"/>
 </g>
</svg>
