<?xml version="1.0" encoding="UTF-8"?>
<!DOCTYPE svg PUBLIC "-//W3C//DTD SVG 1.1//EN" "http://www.w3.org/Graphics/SVG/1.1/DTD/svg11.dtd">
<!-- Creator: CorelDRAW X6 -->
<svg xmlns="http://www.w3.org/2000/svg" xml:space="preserve" width="364px" height="364px" version="1.1" style="shape-rendering:geometricPrecision; text-rendering:geometricPrecision; image-rendering:optimizeQuality; fill-rule:evenodd; clip-rule:evenodd"
viewBox="0 0 136388 136388"
 xmlns:xlink="http://www.w3.org/1999/xlink">
 <defs>
  <style type="text/css">
   <![CDATA[
    .fil3 {fill:none}
    .fil0 {fill:#373435}
    .fil1 {fill:#373435;fill-rule:nonzero}
    .fil2 {fill:#0D5DAC;fill-rule:nonzero}
   ]]>
  </style>
 </defs>
 <g id="Capa_x0020_1">
  <metadata id="CorelCorpID_0Corel-Layer"/>
  <g id="_519829088">
   <g>
    <path class="fil0" d="M63474 35602c-5021,415 -11445,1043 -15513,3948 -5801,4142 4498,7204 8066,7918 3694,740 8193,1141 12111,878 4143,-278 7432,-681 11081,-1880 1666,-547 3115,-1235 4374,-2097 7167,-4912 -9790,-9619 -20119,-8767z"/>
    <path class="fil0" d="M85393 48410c-357,78 -1421,739 -1927,983 -9180,4440 -25985,4416 -35382,13 -768,-360 -1328,-756 -1946,-1020 -113,1179 -30,2729 -30,3948 0,1384 -222,2686 471,3616 959,1286 3091,2382 5055,3105 7908,2910 20277,2884 28200,9 2063,-749 3943,-1703 5064,-3083 732,-901 511,-2114 511,-3527 0,-1320 49,-2737 -15,-4044z"/>
    <path class="fil0" d="M85397 61238c-487,111 -3310,2053 -8710,3194 -8581,1814 -20485,1574 -28596,-2192 -678,-315 -1368,-802 -1965,-1029 -80,1250 -19,2682 -19,3953 0,1367 -226,2680 488,3600 3204,4126 14064,5265 19187,5259 4976,-6 15994,-1129 19103,-5223 728,-959 521,-2056 521,-3516 0,-1331 38,-2722 -10,-4045z"/>
   </g>
   <g>
    <path class="fil1" d="M104030 96075l7599 0 0 2630 -7769 0c-714,0 -1380,-134 -1997,-402 -617,-268 -1161,-629 -1632,-1084 -471,-471 -836,-1014 -1096,-1632 -260,-617 -390,-1283 -390,-1997l0 -12469 2776 0 0 12445c0,357 65,686 195,987 130,300 309,564 536,791 228,227 491,406 792,536 300,130 629,195 986,195z"/>
    <path class="fil1" d="M94800 82631c470,471 840,1011 1108,1620 268,609 402,1271 402,1985l0 7355c0,714 -134,1380 -402,1997 -268,617 -637,1161 -1108,1632 -471,471 -1011,836 -1620,1096 -609,260 -1271,390 -1985,390l-3044 0 0 2435 -2801 0 0 -2435 -3044 0c-714,0 -1380,-130 -1997,-390 -617,-260 -1153,-625 -1608,-1096 -471,-471 -840,-1014 -1108,-1632 -268,-617 -402,-1283 -402,-1997l0 -7355c0,-714 134,-1376 402,-1985 268,-609 637,-1148 1108,-1620 454,-471 990,-836 1608,-1096 617,-260 1282,-390 1997,-390l8889 0c714,0 1376,130 1985,390 609,260 1149,625 1620,1096zm-1267 3629c-33,-714 -284,-1299 -755,-1754 -455,-471 -1039,-722 -1754,-755l-8549 0c-714,33 -1299,284 -1754,755 -227,227 -410,491 -548,792 -138,300 -207,621 -207,962l0 7306c0,357 69,686 207,987 138,300 321,564 548,791 227,227 491,406 792,536 300,130 621,195 962,195l2874 0 0 -2338 2801 0 0 2338 2874 0c341,0 661,-65 962,-195 300,-130 564,-309 791,-536 471,-471 722,-1063 755,-1778l0 -7306z"/>
    <path class="fil1" d="M70226 88695c698,0 1351,130 1961,390 609,260 1140,617 1595,1071 454,454 812,986 1071,1595 260,609 390,1262 390,1960 0,682 -130,1328 -390,1936 -260,609 -617,1141 -1071,1595 -455,455 -987,812 -1595,1071 -609,260 -1263,390 -1961,390l-12811 0 0 -2630 12811 0c325,0 633,-61 925,-183 292,-122 548,-292 767,-511 219,-219 390,-471 512,-755 122,-284 182,-588 182,-914 0,-665 -231,-1229 -694,-1693 -463,-463 -1027,-694 -1693,-694l-8987 0c-714,0 -1376,-130 -1985,-390 -609,-260 -1149,-625 -1620,-1096 -471,-471 -840,-1015 -1108,-1632 -268,-617 -402,-1275 -402,-1973 0,-714 134,-1380 402,-1997 268,-617 637,-1161 1108,-1632 471,-454 1011,-816 1620,-1084 608,-268 1271,-402 1985,-402l12713 0 0 2630 -12689 0c-665,49 -1218,309 -1656,779 -211,227 -377,483 -499,768 -122,284 -183,596 -183,937 0,325 61,630 183,914 122,284 288,540 499,767 422,471 975,731 1656,779l8963 0z"/>
    <polygon class="fil1" points="45311,90863 54176,90863 54176,93566 45311,93566 "/>
    <polygon class="fil2" points="32890,98705 32890,83751 24731,83751 24731,81681 24731,81121 43849,81121 43849,83751 35666,83751 35666,98705 "/>
   </g>
  </g>
  <path class="fil3" d="M0 0l136388 0 0 68194c0,37662 -30531,68194 -68194,68194l-68194 0 0 -136388zm136388 68194l0 68194 -68194 0c-37662,0 -68194,-30531 -68194,-68194 0,-37662 30531,-68194 68194,-68194 37662,0 68194,30531 68194,68194z"/>
 </g>
</svg>
