<?xml version="1.0" encoding="UTF-8"?>
<!DOCTYPE svg PUBLIC "-//W3C//DTD SVG 1.1//EN" "http://www.w3.org/Graphics/SVG/1.1/DTD/svg11.dtd">
<!-- Creator: CorelDRAW X6 -->
<svg xmlns="http://www.w3.org/2000/svg" xml:space="preserve" width="364px" height="364px" version="1.1" style="shape-rendering:geometricPrecision; text-rendering:geometricPrecision; image-rendering:optimizeQuality; fill-rule:evenodd; clip-rule:evenodd"
viewBox="0 0 92216 92216"
 xmlns:xlink="http://www.w3.org/1999/xlink">
 <defs>
  <style type="text/css">
   <![CDATA[
    .fil5 {fill:none}
    .fil0 {fill:black}
    .fil2 {fill:#3C85CD}
    .fil4 {fill:#902596}
    .fil3 {fill:#F1622D}
    .fil1 {fill:#F9C604}
   ]]>
  </style>
 </defs>
 <g id="Capa_x0020_1">
  <metadata id="CorelCorpID_0Corel-Layer"/>
  <g id="_689812296">
   <path class="fil0" d="M46050 30341l-11847 6093 -1 4727c-610,-187 -1394,-708 -2011,-998 -315,-148 -655,-317 -984,-494 -438,-237 -515,-404 -1027,-137 -2158,1128 -5581,2972 -7660,3950 -1190,560 -2684,1519 -3852,1941l0 8653 10962 5564c269,153 675,495 1172,336l5288 -2737c2346,-1226 1752,-1205 3584,-243l5284 2726c930,433 864,758 1790,254l5287 -2728c2245,-1186 1406,-1108 3573,-72 1149,549 2401,1221 3545,1803 591,301 1149,598 1747,922 501,272 455,224 939,-28l9681 -4967c566,-294 1253,-576 1751,-927l-15 -8427c-552,-476 -9845,-5076 -11421,-5933 -578,-315 -528,-233 -1897,484 -536,281 -1376,792 -1931,972l0 -4549c-168,-390 -2466,-1390 -2950,-1643l-8916 -4611c-134,40 -136,-59 -92,69z"/>
   <path class="fil1" d="M37186 46201c648,195 1595,768 2240,1096 735,374 1464,746 2195,1117 543,276 4203,2173 4441,2188 490,31 8027,-4097 8968,-4381 -387,-416 -8880,-4609 -8901,-4610 -303,-15 -3902,1925 -4467,2222l-4476 2367z"/>
   <path class="fil2" d="M37203 36905c1432,651 2973,1496 4406,2218 737,371 1465,755 2208,1113 982,472 1261,-423 2189,-621 769,-164 1312,1152 2295,645l6713 -3327c-303,-367 -8846,-4606 -8878,-4607 -178,-6 -8664,4303 -8935,4580z"/>
   <path class="fil3" d="M21672 45943c617,415 6435,3256 7791,3951 1338,686 773,751 3223,-486 1903,-961 1517,-128 1519,-3724l2317 -1201c-202,-241 -1525,-874 -1820,-1028 -646,-337 -1217,-605 -1837,-931 -604,-317 -1205,-631 -1805,-953 -669,-359 -702,-138 -1991,538 -1415,741 -6525,3262 -7396,3833z"/>
   <path class="fil4" d="M55560 44381l2443 1284 7 3019c208,356 2470,1392 2990,1637 567,267 1116,-208 1615,-458 537,-270 1003,-503 1534,-768 1998,-1002 4232,-2018 6118,-3077 -305,-292 -6387,-3337 -7316,-3822 -462,-241 -1411,-879 -1865,-682l-5525 2868z"/>
   <path class="fil3" d="M20445 52915l9186 4706c79,-1220 22,-4053 22,-5436 0,-402 -1790,-1113 -2183,-1310l-4671 -2335c-696,-354 -1657,-922 -2355,-1172l1 5548z"/>
   <path class="fil4" d="M62258 52032l-39 5628c619,-176 1764,-869 2386,-1194 1009,-527 6805,-3360 6893,-3637l-20 -5409 -9219 4612z"/>
   <path class="fil1" d="M46959 52369l0 5468 9285 -4748 -11 -5478 -8146 4035c-521,267 -991,401 -1128,723z"/>
   <polygon class="fil1" points="35978,53139 45165,57818 45185,52221 36005,47568 "/>
   <path class="fil3" d="M31426 52012l1 5607 4685 -2371c-193,-297 -1282,-666 -1903,-1077l-6 -3519 -2778 1360z"/>
   <path class="fil2" d="M49917 41517c960,530 2060,1030 3089,1592 732,400 951,101 1663,-270 479,-250 1119,-539 1548,-844l17 -3675c-526,141 -6052,2920 -6317,3196z"/>
   <path class="fil2" d="M35980 42157c1741,542 1974,1625 3151,988 1032,-558 2158,-1174 3165,-1616l-3117 -1636c-955,-461 -2231,-1250 -3201,-1585l2 3849z"/>
   <polygon class="fil4" points="58006,54191 55880,55349 60431,57665 60444,51989 58042,50824 "/>
  </g>
  <path class="fil5" d="M0 0l92216 0 0 46108c0,25464 -20643,46108 -46108,46108l-46108 0 0 -92216zm92216 46108l0 46108 -46108 0c-25464,0 -46108,-20643 -46108,-46108 0,-25464 20643,-46108 46108,-46108 25464,0 46108,20643 46108,46108z"/>
 </g>
</svg>
